<svg id="Bioloski_odsjek-znak_i_logo-ENG_Image" data-name="Bioloski odsjek-znak i logo-ENG Image" xmlns="http://www.w3.org/2000/svg" viewBox="0 0 527.28 243.84"><defs><style>.cls-1{fill:#fff;}.cls-2{fill:#727375;}.cls-3{fill:#70aad3;}.cls-4{fill:#7fb0b1;}.cls-5{fill:#88b39d;}.cls-6{fill:#a2bd3f;}.cls-7{fill:#767778;}.cls-8{fill:#9dbb53;}.cls-9{fill:#96b86b;}.cls-10{fill:#8eb587;}.cls-11{fill:#75acc9;}.cls-12{fill:#8bb490;}.cls-13{fill:#93b779;}.cls-14{fill:#7cb0c4;}.cls-15{fill:#7f8082;}.cls-16{fill:#fefefe;}</style></defs><path class="cls-1" d="M263.64,0Q394.91,0,526.18,0c.9,0,1.1.2,1.1,1.1q0,120.83,0,241.64c0,.9-.2,1.1-1.1,1.1q-262.54,0-525.08,0c-.9,0-1.1-.2-1.1-1.1Q0,121.92,0,1.1C0,.2.2,0,1.1,0Q132.37,0,263.64,0ZM103,105.92a24.72,24.72,0,0,0-8.64,2.89c-8.14,4.57-12.27,11.61-12.8,21.17l-1.62-3.26c-.1-.34-.17-.69-.28-1a37.38,37.38,0,0,1-2-13.75c.07-1.34-.23-2.8.65-4a66.86,66.86,0,0,0,8.84-.3,16.9,16.9,0,0,0,4.12-.56,37.9,37.9,0,0,0,7.68-1.55,38.23,38.23,0,0,0,8.65-3.24,39.25,39.25,0,0,0,10.1-6.37,27.13,27.13,0,0,0,2.68-2.46,40.29,40.29,0,0,0,8.36-10.51,46.25,46.25,0,0,0,3.07-5.72c.37-.8.72-1.15,1.68-1a3.31,3.31,0,0,0,2.67-.06,2.13,2.13,0,0,0,1-2.25A2.21,2.21,0,0,0,135,72.05c-.86-.08-1-.33-.68-1.11.47-1.18.87-2.39,1.25-3.61a2.24,2.24,0,1,0-4.24-1.43c-.51,1.42-1,2.84-1.46,4.29-.23.74-.6,1.17-1.42,1a65.21,65.21,0,0,0-9.36-.61,66.72,66.72,0,0,0-7.21.24,41.3,41.3,0,0,0-8.17,1.6,25.11,25.11,0,0,0-7,2.66,23.86,23.86,0,0,0-6,3.6,28.43,28.43,0,0,0-5.62,4.82,38.3,38.3,0,0,0-7.09,10,6.36,6.36,0,0,0-.46.69,41.57,41.57,0,0,0-3.13,8.51A1.32,1.32,0,0,1,73,104a9.7,9.7,0,0,0-3.14.63,27.76,27.76,0,0,0-8.14,2.75A25.36,25.36,0,0,0,54,112.76c-.32.3-.66.58-1,.9-6.8,7.62-9,16.42-6.67,26.33a42.43,42.43,0,0,0,7.87,16.62,41.91,41.91,0,0,0,7.94,8.77,42.12,42.12,0,0,0,8.67,6.45,39.92,39.92,0,0,0,10.08,4.81,41.2,41.2,0,0,0,13,2.8,38.08,38.08,0,0,0,10.81-.59,29.93,29.93,0,0,0,8.39-2.43,34.41,34.41,0,0,0,9.19-5,44.74,44.74,0,0,0,9.6-8.72,27.83,27.83,0,0,0,6-10.61c4.22-12.95,3-25.07-5.89-35.89-.31-.37-.6-.74-.92-1.09a32.17,32.17,0,0,0-20.42-9.39A29.05,29.05,0,0,0,103,105.92ZM378.22,133.6a4.2,4.2,0,0,0,3.12-3.33,10.65,10.65,0,0,0-.11-5,4.6,4.6,0,0,0-4.57-3.86c-4.55-.27-9.11-.13-13.67-.08-2.17,0-3.21,1.13-3.23,3.34q-.08,9.12,0,18.23a3.11,3.11,0,0,0,3.46,3.43q6.89,0,13.79-.07a4.64,4.64,0,0,0,4.63-3.77,15.24,15.24,0,0,0,.27-4.05C381.85,136,380.89,134.3,378.22,133.6Zm82,4.66h.08c0-2.4,0-4.8,0-7.19-.05-2.55-1.18-3.64-3.71-3.67s-5.19,0-7.79,0a6.2,6.2,0,0,0-6.21,5,19.06,19.06,0,0,0-.11,8.2c.76,4.22,2.59,5.67,6.91,5.67,1.88,0,3.76,0,5.63,0,1,0,1,.35.66,1.06-.71,1.55-2.1,1.88-3.57,1.92-2.08.06-4.16,0-6.24,0-2.5,0-2.47,0-2.37,2.47,0,.66.26.8.85.8,2.92,0,5.84.07,8.75,0,4.69-.16,6.84-2.25,7.12-6.94C460.31,143.14,460.19,140.69,460.19,138.26Zm-39.95-1.38c0,.63,0,1.28,0,1.91.29,4.46,2.45,6.92,6.73,7.53a22.31,22.31,0,0,0,7.38-.15,6.54,6.54,0,0,0,5.48-5.18,17,17,0,0,0,.05-8.18,6.59,6.59,0,0,0-5.84-5.38,24.28,24.28,0,0,0-7.75,0,6.51,6.51,0,0,0-5.63,5.15A15,15,0,0,0,420.24,136.88Zm-8.93,0c0-.59,0-1.2,0-1.79-.33-4.39-2.31-6.94-6-7.58a23.65,23.65,0,0,0-7.51-.08c-3.63.54-5.44,2.21-6.23,5.8a17.21,17.21,0,0,0,.05,7.59,6.53,6.53,0,0,0,5.44,5.36,21.27,21.27,0,0,0,8.56,0,6.43,6.43,0,0,0,5.21-5A13.1,13.1,0,0,0,411.31,136.84Zm54.92,15.56c1.35,0,2.47,0,3.59,0a1,1,0,0,0,1.05-.71q5.25-11.69,10.55-23.33c.3-.67.37-1-.56-1a12.72,12.72,0,0,1-2.39,0c-.78-.07-1.11.27-1.4.94-1.8,4.14-3.65,8.25-5.49,12.37-.12.25-.11.64-.57.7-.13-.28-.27-.56-.39-.85-1.71-4.08-3.41-8.17-5.13-12.25-.19-.46-.28-1-1-1-1.19.06-2.39,0-3.73,0,.31.73.56,1.34.83,1.95,2.38,5.32,4.75,10.64,7.15,15.94a1.89,1.89,0,0,1,0,1.79C467.87,148.78,467.1,150.52,466.23,152.4ZM149.8,134.27v9c0,2.47.85,3.33,3.3,3.34,3.2,0,6.39,0,9.59,0a8.16,8.16,0,0,0,8-5.69,22.56,22.56,0,0,0,.73-11.46c-.84-4.95-4.39-7.85-9.43-8-2.75-.1-5.51,0-8.27,0s-3.9,1-3.92,3.9S149.8,131.28,149.8,134.27Zm97.12,3.5c0,2.56,0,5.12,0,7.68,0,.69,0,1.2,1,1.19s1-.43,1-1.17c0-4.87,0-9.75,0-14.63,0-1.41.15-1.58,1.58-1.58,2.32,0,4.64.05,7,0,1.12,0,1.49.23,1.47,1.43-.08,4.95,0,9.91,0,14.87,0,.65,0,1.13.91,1.11s1.07-.27,1.06-1.09c0-5.08,0-10.16,0-15.23,0-.85.25-1.11,1.08-1.08,1.72.06,3.44,0,5.16,0,2.83.06,3.73,1,3.73,3.79,0,4.23,0,8.47,0,12.71,0,.71.25.9.9.85s1.11.15,1.1-.79c-.05-4.56,0-9.11-.08-13.67a4.27,4.27,0,0,0-2-3.88,6.34,6.34,0,0,0-3.46-.78q-8.64,0-17.28,0c-2.15,0-3,.81-3,3C246.9,132.9,246.92,135.33,246.92,137.77Zm-54.49,3c0,3.68,0,7.35,0,11,0,.85.37.86,1,.86s1-.06,1-.89c-.07-1.35.05-2.72,0-4.07-.07-1,.31-1.19,1.21-1.16,1.63.07,3.28,0,4.91,0,4.22-.09,6.81-2.34,7.32-6.41a26.28,26.28,0,0,0,.06-6.33,6.75,6.75,0,0,0-5.28-6.1,27.5,27.5,0,0,0-8-.16,2.22,2.22,0,0,0-2.14,2.54Zm32.25-2.69h0c0-1.84,0-3.68,0-5.52,0-.24,0-.48,0-.71-.2-2.87-1.75-4.38-4.61-4.41s-5.52,0-8.28,0c-.63,0-1,0-1,.87s.4.94,1.09.94c2.64,0,5.27,0,7.91,0a2.63,2.63,0,0,1,3,2.71c.08.75,0,1.52.06,2.27s-.23.94-1,.93q-3.82-.06-7.67,0c-2.46,0-4.07,1.15-4.53,3.13a10.44,10.44,0,0,0-.05,4.75c.55,2.43,1.8,3.51,4.25,3.55,2.84,0,5.68,0,8.52,0,1.6,0,2.28-.66,2.32-2.24C224.72,142.27,224.68,140.19,224.68,138.12Zm58.5-.36v0c1.88,0,3.76,0,5.64,0a2.16,2.16,0,0,0,2.29-1.71,6.76,6.76,0,0,0-4.93-8.22,12.84,12.84,0,0,0-3.33-.31c-5.05.21-7.65,2.47-8,7.08a30,30,0,0,0,.16,6.69,6.12,6.12,0,0,0,6.1,5.35c2.88,0,5.75,0,8.63,0,.74,0,1.07-.13,1.06-1s-.45-.84-1.06-.84c-2.8,0-5.59,0-8.39,0a4.19,4.19,0,0,1-4.15-3.17,13.92,13.92,0,0,1-.35-3.08c0-.64.2-.82.82-.81C279.5,137.78,281.34,137.76,283.18,137.76Zm-101.69,0v0c1.88,0,3.76,0,5.63,0a2.21,2.21,0,0,0,2.36-1.79,6.74,6.74,0,0,0-4.56-8,13.61,13.61,0,0,0-5.58-.23,6.44,6.44,0,0,0-5.83,5.19,21.17,21.17,0,0,0,0,8.79,5.91,5.91,0,0,0,6.16,4.95c2.84,0,5.68,0,8.51,0,.71,0,1-.17,1-.93s-.37-.89-1-.88c-2.79,0-5.59,0-8.39,0a4.27,4.27,0,0,1-4.25-3.5,15.94,15.94,0,0,1-.27-2.49c0-.81.15-1.12,1-1.08C178,137.81,179.73,137.76,181.49,137.76Zm232.22-4v9.58c0,2.9,0,2.86,2.92,2.91,1,0,1.27-.22,1.26-1.24-.05-6.86,0-13.73,0-20.6,0-3.18,0-3.14-3.16-3.15-.91,0-1,.35-1,1.12C413.73,126.21,413.71,130,413.71,133.8Zm-120.4,3.93c0,2.68,0,5.36,0,8,0,.87.45.83,1,.85s1-.08.92-.83c-.05-1,0-1.92,0-2.88V130.44c0-.56-.09-1.19.78-1.18,2.56,0,5.12-.13,7.67.1a2.82,2.82,0,0,1,2.42,1.89,5.87,5.87,0,0,1,.36,2.36c0,4,0,8.07,0,12.11,0,.8.3.91,1,.9s1-.08,1-.89c0-4.4,0-8.8,0-13.2a4.65,4.65,0,0,0-4.4-4.92,71.92,71.92,0,0,0-7.91-.13c-2.08,0-2.74.63-2.76,2.7C293.3,132.7,293.31,135.21,293.31,137.73Zm19.11-1c.1,2-.2,4.41.23,6.78a3.54,3.54,0,0,0,2.79,2.94,17,17,0,0,0,3.34.2c.74.06,1.06-.12,1.06-1s-.46-.87-1.06-.84c-.36,0-.72,0-1.08,0-2.53-.08-3.29-.8-3.32-3.33-.05-3.79,0-7.59,0-11.39,0-.71.25-.88.9-.85,1.2,0,2.4,0,3.6,0,.64,0,.83-.23.81-.85s0-1-.81-1c-1.07.06-2.17-.08-3.23,0s-1.34-.33-1.28-1.34c.09-1.31,0-2.64,0-4,.05-.89-.45-.82-1-.83s-1,0-.94.79c.07,1.24,0,2.48,0,3.72,0,1.57,0,1.64-1.58,1.56-1-.06-1.12.34-1.07,1.17.07,1.09.88.63,1.34.6,1-.05,1.4.22,1.34,1.32C312.35,132.46,312.42,134.38,312.42,136.69Zm-74.3-.49a62.8,62.8,0,0,0,.19,7,3.65,3.65,0,0,0,2.91,3.25,19.08,19.08,0,0,0,3.46.19c.7.06.88-.22.87-.88s-.1-1-.84-.92a7.69,7.69,0,0,1-1,0c-2.87,0-3.66-.75-3.69-3.6,0-3.68,0-7.36,0-11,0-.76.27-1,1-.93,1.16,0,2.33,0,3.48,0,.78,0,.81-.36.81-1s-.07-.89-.77-.86c-1.16.05-2.32,0-3.48,0-.75,0-1.05-.17-1-1,.06-1.48,0-3,0-4.44,0-.8-.46-.69-.93-.67s-1.08-.21-1,.69c.06,1.2,0,2.4,0,3.6,0,1.74,0,1.78-1.73,1.77-.77,0-.91.27-.94,1,0,1.13.74.87,1.29.82,1.06-.1,1.48.19,1.4,1.34C238,132.3,238.12,134,238.12,136.2Zm150.78.72c0-2.12,0-4.23,0-6.35,0-1,.46-2.36-.22-3s-2-.1-3-.2c-.82-.09-1,.26-1,1,0,4.91,0,9.82,0,14.74,0,3.25,0,3.22,3.27,3.15.75,0,.94-.26.93-1C388.88,142.52,388.9,139.72,388.9,136.92Zm-54-5.16v0c-.56,0-1.12,0-1.68,0-2.93.27-4.56,1.62-5.23,4.41a12,12,0,0,0,.15,6.26,4.87,4.87,0,0,0,3.36,3.59,11.57,11.57,0,0,0,6.72,0,4.64,4.64,0,0,0,3.05-2.82,11.48,11.48,0,0,0,.56-6.35c-.53-3.32-2.39-5-5.74-5.13C335.66,131.74,335.26,131.76,334.86,131.76ZM234,127.47c-4.34,0-6.47,2.19-6.48,6.38,0,3.91,0,7.83,0,11.73,0,.73.11,1.07,1,1s1-.23,1-1c0-3.75,0-7.5,0-11.25a9.65,9.65,0,0,1,.21-2.14,3.42,3.42,0,0,1,3-2.84,13.48,13.48,0,0,1,1.9-.13c.42,0,.61-.1.68-.59C235.41,127.46,234.75,127.35,234,127.47Zm110.87,12.24c0,1.88,0,3.76,0,5.63,0,.49-.19,1,.7,1s.74-.48.74-1c0-3.08,0-6.16,0-9.23,0-.94-.45-2.19.21-2.74s1.76-.14,2.67-.17a1.92,1.92,0,0,1,.24,0c.43,0,.76,0,.76-.61s-.17-.8-.75-.77c-.84,0-1.68,0-2.52,0-.34,0-.59,0-.6-.51a2.71,2.71,0,0,1,2.09-2.71,9.62,9.62,0,0,1,1.31-.19c.57,0,.42-.45.45-.79s-.24-.49-.6-.52a4.13,4.13,0,0,0-4.66,3.78c-.08.81-.35,1-1.07.94-.5-.05-.93-.07-.93.7s.47.72.93.66c.9-.13,1.05.29,1,1.08C344.84,136.11,344.87,137.91,344.87,139.71ZM208,93.7c-.25-.46-.45-.79-.61-1.15-.66-1.53-1.27-2.91-3.46-2.59a30.52,30.52,0,0,1-5.15,0c-.42,0-.55.16-.54.57s.19.48.52.46a6,6,0,0,0,.6,0c.86-.13,1.2.16,1.15,1.09-.08,1.68,0,3.36,0,5,0,.5-.06.92.69.94s.78-.43.77-1c0-1.56,0-3.12,0-4.67,0-1,.17-1.64,1.34-1.41.66.14,1-.2,1.12-1.13,1.15,2.64,3.21,4.55,2.73,7.43-.09.57.17.74.74.76s.84-.3.76-.87a6.93,6.93,0,0,1,1.26-4.72,8.11,8.11,0,0,0,1.17-2.4,1.25,1.25,0,0,0-1.77.92C208.91,91.9,208.42,92.72,208,93.7Zm-45,1.86a.69.69,0,0,1-.65-.52c-.77-1.49-1.55-3-2.27-4.47-.42-.88-1.15-.57-1.77-.55s-.41.66-.42,1c0,2,0,4,0,6,0,.42-.22,1,.59,1s.53-.61.58-1a7.85,7.85,0,0,0,0-.84V92.41l.33,0c.25.44.51.87.74,1.31.66,1.28,1.33,2.54,1.95,3.84.38.81,1.07.56,1.66.53s.44-.65.44-1c0-2,0-4,0-6,0-.4.29-1-.56-1s-.58.69-.59,1.1C162.88,92.56,162.9,94,162.9,95.56Zm88,11.08.28,0c.15.27.31.54.45.82.77,1.49,1.55,3,2.27,4.48.36.75,1,.53,1.55.55.4,0,.56-.17.56-.57q0-3.48,0-7c0-.44-.23-.52-.6-.53s-.6.1-.58.53,0,.64,0,1v4.42A48.52,48.52,0,0,1,252,105c-.42-.88-1.15-.55-1.76-.53s-.38.66-.39,1q0,2.94,0,5.88c0,.43-.34,1.15.59,1.13s.53-.66.54-1.07C251,109.81,250.94,108.22,250.94,106.64Zm-38.77,1.67c0-2.54-1.34-4-3.69-4s-3.69,1.6-3.72,4.22,1.3,4.06,3.64,4.08S212.14,111.06,212.17,108.31Zm44.27-14.06c1.59-.68,2-1.37,1.81-2.66-.19-1.09-.9-1.56-2.45-1.59-.64,0-1.28,0-1.92,0s-.75.17-.74.74q0,3.24,0,6.48c0,.57.07.88.76.87s.7-.43.72-.94a10.76,10.76,0,0,1,.15-2.9c.66,1,1.31,1.85,1.78,2.76a1.78,1.78,0,0,0,2.43.93ZM221.57,94c.05-2.26-.91-3.68-2.76-4a3.42,3.42,0,0,0-3.76,1.22,5.11,5.11,0,0,0-.37,5.25c.63,1.4,1.94,1.78,3.41,1.73C220.25,98.1,221.51,96.61,221.57,94ZM270,93.82a2.13,2.13,0,0,0,.94-2.67c-.44-1.05-1.41-1.17-2.41-1.15a11.36,11.36,0,0,1-1.43,0c-.76-.08-1.05.15-1,1,.06,1.51,0,3,0,4.55,0,2.8,0,2.81,2.86,2.56a2.3,2.3,0,0,0,2.34-1.68C271.61,95.24,271.12,94.46,270,93.82Zm-85.91.64.25-.11c.58.89,1.22,1.75,1.72,2.68a1.73,1.73,0,0,0,2.41.88c-.73-1-1.4-2-2.09-3-.3-.42-.54-.7.23-1a1.86,1.86,0,0,0,1.14-2.34A1.79,1.79,0,0,0,185.9,90c-.87-.06-1.75,0-2.63-.05-.57,0-.64.26-.63.72,0,2.2,0,4.39,0,6.58,0,.55.12.79.73.79s.76-.2.74-.77C184.06,96.36,184.09,95.41,184.09,94.46Zm-6.93,13.05h0c0,.76,0,1.52,0,2.28-.07,1.23-.66,1.79-1.79,1.76s-1.58-.58-1.6-1.79c0-1.56,0-3.12,0-4.68,0-.65-.31-.7-.81-.69s-.78,0-.76.63a53.61,53.61,0,0,0,.12,5.38c.22,1.54,1.2,2.22,3,2.21s2.89-.75,3-2.24c.13-1.75.08-3.51.12-5.26,0-.49-.11-.73-.66-.73s-.67.25-.66.73C177.18,105.91,177.16,106.71,177.16,107.51Zm-21.1-14.26h0c0-.76,0-1.52,0-2.27,0-.42.25-1-.59-1s-.65.49-.65.94c0,1.48,0,3,0,4.44a1.61,1.61,0,0,1-1.67,1.79c-1.14,0-1.73-.52-1.76-1.77,0-1.56,0-3.12,0-4.67,0-.62-.26-.75-.79-.72s-.79,0-.77.61c0,1.75-.05,3.52.12,5.26s1.27,2.44,3.38,2.32c1.78-.1,2.69-1,2.75-2.65C156.08,94.77,156.06,94,156.06,93.25Zm95.46,2.86c0-.36,0-.72,0-1.08s0-.75-.63-.72-.85.07-.79.7c0,.48,0,1,0,1.44,0,.3,0,.58-.41.6a2.61,2.61,0,0,1-2.51-.79,3.79,3.79,0,0,1-.26-3.87c.52-1.19,1.61-1.44,2.8-1.42.31,0,.63.06,1,.09s.65.28.73-.27-.21-.52-.54-.64a4.75,4.75,0,0,0-4.87,1,5.29,5.29,0,0,0-.47,5.32c.71,1.27,2.38,1.87,4.34,1.58C251.52,97.85,251.52,97.85,251.52,96.11Zm-19.06.94.75-1.1q1.46-2.13,2.93-4.24c.3-.43.67-.89.44-1.42s-.84-.27-1.27-.28c-1.24,0-2.48,0-3.72,0-.36,0-.62.05-.62.51s.22.54.6.53c.56,0,1.12,0,1.68,0s1-.22,1.23.16-.28.77-.51,1.11q-1.44,2.14-2.93,4.24a1.33,1.33,0,0,0-.26,1.24c.2.5.7.27,1.06.28,1.4,0,2.8,0,4.2,0,.34,0,.65,0,.67-.46s-.26-.58-.68-.57C234.92,97.06,233.8,97.05,232.46,97.05Zm8.2-1.47c1.1-.35,1.61.19,1.77,1.23a3.74,3.74,0,0,0,.26.8c.27.69.89.51,1.33.4s.15-.59.06-.86c-.71-2.15-1.47-4.29-2.19-6.45a.86.86,0,0,0-1-.71c-.45,0-.8,0-1,.58-.76,2.26-1.59,4.5-2.39,6.75-.09.24-.33.6.06.7s.83.23,1.08-.22a3.05,3.05,0,0,0,.36-1C239.13,95.81,239.54,95.23,240.66,95.58Zm-78,16.76-1.95-5.73c-.18-.53-.42-1-.55-1.58s-.45-.64-.95-.65-.86.09-1.06.67c-.76,2.23-1.58,4.43-2.35,6.65-.09.24-.41.65.15.73.35,0,.83.21,1-.32s.31-1,.49-1.48c.09-.24.09-.54.4-.68a2.13,2.13,0,0,1,2.86,1.26C161,112.25,161.51,112.73,162.7,112.34ZM260,94c0,1.12,0,2.24,0,3.35,0,.47.09.77.65.76,1.2,0,2.4,0,3.6,0,.34,0,.52-.1.53-.47s-.14-.58-.56-.56c-.68,0-1.36,0-2,0-.27,0-.52,0-.65-.36-.47-1.35.1-2.26,1.49-2.31.37,0,1,.26,1-.51s-.58-.45-1-.51a3.37,3.37,0,0,0-.84,0c-.54,0-.65-.21-.68-.7-.09-1.59-.08-1.63,1.47-1.63.36,0,.72,0,1.07,0s.6-.11.59-.54-.28-.5-.63-.5c-1.12,0-2.24,0-3.35,0-.58,0-.65.28-.65.74C260,91.81,260,92.89,260,94Zm-17.09,14.4c0,1.11,0,2.23,0,3.35,0,.47.09.75.64.74,1.2,0,2.4,0,3.59,0,.31,0,.53-.07.55-.45s-.2-.55-.58-.55c-.6,0-1.2,0-1.79,0-1.25.12-.91-.77-.94-1.42s-.12-1.35,1-1.31c.49,0,1.51.54,1.45-.54,0-.88-1-.25-1.45-.44-.33-.12-.8.25-1-.37-.38-1.37.05-2,1.47-2,.36,0,.72,0,1.08,0s.57-.11.57-.54-.27-.49-.61-.48c-1.08,0-2.16,0-3.23,0-.57,0-.77.17-.76.75C242.94,106.21,242.92,107.29,242.92,108.37Zm23.51.25c.13,1-.56,2.74.25,3.61s2.42.16,3.69.23h.24c.36,0,.61-.07.6-.52s-.31-.48-.65-.48c-.64,0-1.27,0-1.91,0-.36,0-.67,0-.76-.52-.3-1.67,0-2.1,1.64-2.16h.36c.36,0,.48-.18.49-.52s-.16-.5-.5-.49a5.87,5.87,0,0,0-.84,0c-.94.14-1.19-.24-1.18-1.17s.26-1.32,1.22-1.19c.43,0,.87,0,1.31,0s.62,0,.63-.48-.29-.55-.68-.54c-1.08,0-2.15,0-3.23,0-.52,0-.7.18-.69.69C266.45,106.16,266.43,107.24,266.43,108.62ZM175.54,90.13c-.95-.32-1.48-.11-1.71.87a28.19,28.19,0,0,1-.93,3,6.5,6.5,0,0,1-.9,2.23c-.58-1.77-1.16-3.37-1.61-5-.3-1.06-.83-1.45-2-1,.86,2.47,1.73,5,2.57,7.43.18.51.54.5.95.49s.76,0,.94-.49C173.75,95.09,174.65,92.63,175.54,90.13Zm87.66,21.26c-2.48.1-3.47-.84-3.38-3.13.09-2.1,1.33-3.1,3.53-2.84l.47.08c.26,0,.59.2.62-.28,0-.31-.1-.47-.41-.62a4.21,4.21,0,0,0-5.11,1.47,4.72,4.72,0,0,0,.05,5.12c1,1.5,2.62,1.52,4.21,1.2.47-.1,1.37.13,1.22-.74S263.53,111.61,263.2,111.39Zm-36.58-7c-1.5,0-2.35.49-2.64,1.57s.18,2,1.44,2.72c.41.24.84.46,1.25.69a1.11,1.11,0,0,1,.65,1.28,1.08,1.08,0,0,1-1.17.83,13.25,13.25,0,0,1-1.67-.1c-.27,0-.58-.18-.61.29,0,.3,0,.58.39.64a7.09,7.09,0,0,0,2.25.27,2.32,2.32,0,0,0,2.25-1.81,2.25,2.25,0,0,0-1.28-2.68c-.52-.29-1-.57-1.57-.87a.94.94,0,0,1-.51-1.11,1,1,0,0,1,1-.69c.52,0,1,.07,1.55.12.22,0,.49.2.55-.17s.12-.57-.25-.71A4.19,4.19,0,0,0,226.62,104.35Zm8.93,7c-1.83.07-2.78-.36-3.11-1.54-.65-2.37.1-4.88,3.5-4.43.28,0,.72.45.89-.14s-.29-.65-.68-.77a4.31,4.31,0,0,0-4.58,1.21,5.15,5.15,0,0,0-.3,5.32c.75,1.24,2.29,1.76,4.26,1.36.47-.09,1.36.13,1.27-.69S235.89,111.64,235.55,111.39Zm-67.27,1.14,1.18-.19c.4-.07.87-.08.83-.64,0-.73-.6-.33-.92-.32-1.11,0-2.3.22-3.07-.84a3.6,3.6,0,0,1-.23-3.75c.52-1.2,1.62-1.42,2.79-1.41a7.9,7.9,0,0,1,.83.12c.27,0,.58.15.6-.3a.53.53,0,0,0-.42-.62,5.72,5.72,0,0,0-2.25-.21c-2.23.19-3.58,2-3.45,4.61C164.28,111.29,165.61,112.55,168.28,112.53Zm22.49-15.47A7,7,0,0,0,190,97c-.3,0-.76-.36-.85.28-.07.48.24.61.64.67a8,8,0,0,0,1.89.24,2.37,2.37,0,0,0,2.45-2.84c-.17-1-.92-1.4-1.68-1.89s-2.08-.54-1.64-1.8,1.54-.6,2.41-.56c.24,0,.56.32.67-.14s0-.66-.49-.78a6,6,0,0,0-1.89-.22c-1,.09-1.91.42-2.16,1.53a2.18,2.18,0,0,0,1.14,2.63c.56.31,1.12.62,1.66,1a1,1,0,0,1,.53,1.11,1,1,0,0,1-1,.86Zm-14.16-3.12V97.3c0,.36-.05.75.5.75h3.71c.36,0,.52-.17.51-.51s-.23-.47-.55-.47a12,12,0,0,0-1.2,0c-1.14.16-1.6-.15-1.54-1.44,0-1,.28-1.47,1.33-1.28a4.33,4.33,0,0,0,.72,0c.39,0,.44-.24.43-.55s-.12-.44-.41-.44a5.89,5.89,0,0,0-.84,0c-.88.12-1.24-.13-1.22-1.13s.22-1.4,1.24-1.24a9.59,9.59,0,0,0,1.2,0c.4,0,.71,0,.68-.57s-.38-.43-.68-.43c-1,0-2.08,0-3.12,0-.67,0-.79.25-.77.84C176.63,91.87,176.61,92.91,176.61,93.94ZM149.8,108.37c0,1.16,0,2.32,0,3.48,0,.3,0,.59.41.59s.77.17,1-.15.1-.77.11-1.16a6,6,0,0,1,.09-2c.34-.75,1.22-.19,1.84-.35h.12c.4,0,.42-.27.42-.57s-.13-.43-.42-.44a6.14,6.14,0,0,0-1,0c-.93.15-1.09-.27-1.12-1.13,0-1,.31-1.37,1.29-1.23.39,0,.8,0,1.2,0s.59-.09.59-.53-.24-.5-.61-.49c-1.07,0-2.15,0-3.23,0-.57,0-.78.17-.76.75C149.83,106.21,149.8,107.29,149.8,108.37ZM223,94c0,1.08,0,2.16,0,3.23,0,.52.08.81.7.83s.81-.28.77-.86,0-1.21,0-1.8c-.06-.75.16-1.06,1-1.08.5,0,1.51.54,1.45-.54,0-.88-1-.25-1.46-.44-.32-.12-.8.25-1-.38-.37-1.39,0-2,1.49-2h1c.41,0,.69,0,.67-.56s-.31-.46-.64-.46c-1,0-1.92,0-2.88,0-.81-.06-1.15.15-1.08,1S223,93,223,94Zm-6.34,10.38c-.51,0-1,0-1.55,0s-.77.16-.76.75c0,2.19,0,4.39,0,6.59,0,.6.24.73.78.74,1,0,.64-.7.68-1.17a7.16,7.16,0,0,1,.09-2.14c.35-.79,1.27-.26,1.93-.37.36-.07.47-.22.47-.55s-.18-.49-.52-.48a7.51,7.51,0,0,0-.95,0c-.88.13-1-.28-1.05-1.07-.06-1.1.35-1.43,1.37-1.29.43,0,.88,0,1.32,0s.47-.19.47-.52-.1-.52-.48-.5Zm-28,4.47c0,.91,0,1.83,0,2.75,0,.59.12.86.78.86s.7-.32.7-.82c0-1.48,0-3,0-4.43,0-1.63,0-1.64,1.63-1.81.36,0,.61-.07.62-.51s-.26-.51-.62-.51c-1.59,0-3.18,0-4.78,0-.4,0-.58.12-.56.54s.15.51.5.49c.2,0,.41,0,.6,0,1-.16,1.25.27,1.16,1.19C188.62,107.35,188.68,108.11,188.68,108.87Zm4.74-4.43c.38.71.69,1.35,1.05,2,.95,1.61,2,3.18,1.62,5.21-.1.56.06.87.75.86s.8-.37.72-.9a6.55,6.55,0,0,1,1.19-4.49c.51-.83.92-1.71,1.36-2.55-1.07-.42-1.53,0-1.88.93s-.81,1.68-1.19,2.46C195.62,107,196.26,104.07,193.42,104.44Zm-11,3.43c0-.91,0-1.83,0-2.75,0-.59-.18-.75-.75-.74s-.79.1-.77.72c0,1.35,0,2.71,0,4.07,0,3.54,0,3.54,3.6,3.29.35,0,.73,0,.75-.51s-.32-.53-.71-.56c-.69-.06-1.64.35-2-.22s-.1-1.38-.12-2.1C182.4,108.67,182.41,108.27,182.41,107.87Zm204.34,13.42a3,3,0,0,1-.6,0c-1.22-.23-1.55.28-1.48,1.48.11,1.95,0,1.95,2,1.95a7.63,7.63,0,0,1,1.07,0c1,.15,1.3-.24,1.27-1.24C388.9,121.29,389,121.29,386.75,121.29ZM240.39,108.37c0-1.08,0-2.16,0-3.24,0-.57-.18-.78-.76-.75s-.83,0-.83.68c0,2.23,0,4.47,0,6.71,0,.63.3.7.81.72s.79-.18.77-.76C240.37,110.61,240.39,109.49,240.39,108.37ZM165.88,94.08c0,1.08,0,2.15,0,3.23,0,.57.19.76.75.77s.74-.24.73-.78c0-2.19,0-4.38,0-6.57,0-.57-.16-.75-.73-.75s-.77.19-.75.76C165.91,91.85,165.88,93,165.88,94.08ZM195.61,94c0,1.11,0,2.23,0,3.34,0,.59.21.74.76.74s.75-.22.75-.77q0-3.28,0-6.57c0-.61-.24-.71-.77-.72s-.76.19-.74.75C195.63,91.81,195.6,92.89,195.61,94Z"/><path class="cls-2" d="M378.22,133.6c2.67.7,3.63,2.41,3.68,4.85a15.24,15.24,0,0,1-.27,4.05,4.64,4.64,0,0,1-4.63,3.77q-6.9.1-13.79.07a3.11,3.11,0,0,1-3.46-3.43q-.08-9.1,0-18.23c0-2.21,1.06-3.31,3.23-3.34,4.56,0,9.12-.19,13.67.08a4.6,4.6,0,0,1,4.57,3.86,10.65,10.65,0,0,1,.11,5A4.2,4.2,0,0,1,378.22,133.6Zm-8.39,2c-1.52,0-3,0-4.55,0-.54,0-.79.11-.78.72,0,1.59,0,3.19,0,4.79a1.24,1.24,0,0,0,1.39,1.41c2.8,0,5.6.06,8.39,0,1.74-.05,2.52-.89,2.69-2.62a7.66,7.66,0,0,0,0-1.79,2.52,2.52,0,0,0-2.81-2.48C372.71,135.57,371.27,135.6,369.83,135.6Zm0-3.8v0h4.43A1.94,1.94,0,0,0,376,131a5.14,5.14,0,0,0,.28-4.38c-.4-1.31-1.6-1.45-2.73-1.47-2.55,0-5.11,0-7.66,0-1,0-1.44.46-1.42,1.47,0,1.44.07,2.87,0,4.31,0,.84.32,1,1,.95C367,131.76,368.4,131.8,369.83,131.8Z"/><path class="cls-2" d="M460.19,138.26c0,2.43.12,4.88,0,7.3-.28,4.69-2.43,6.78-7.12,6.94-2.91.11-5.83,0-8.75,0-.59,0-.83-.14-.85-.8-.1-2.47-.13-2.46,2.37-2.47,2.08,0,4.16,0,6.24,0,1.47,0,2.86-.37,3.57-1.92.33-.71.3-1.08-.66-1.06-1.87.06-3.75,0-5.63,0-4.32,0-6.15-1.45-6.91-5.67a19.06,19.06,0,0,1,.11-8.2,6.2,6.2,0,0,1,6.21-5c2.6-.07,5.2-.05,7.79,0s3.66,1.12,3.71,3.67c.06,2.39,0,4.79,0,7.19ZM456,137.2c0-1.64,0-3.28,0-4.91a1.41,1.41,0,0,0-1.48-1.64,21.75,21.75,0,0,0-4.77.11,3.29,3.29,0,0,0-2.92,2.74,15.42,15.42,0,0,0,0,6.76,3.09,3.09,0,0,0,3.36,2.76c1.67.06,3.35,0,5,0,.66,0,.8-.23.79-.83C456,140.55,456,138.87,456,137.2Z"/><path class="cls-3" d="M54.2,156.61A42.43,42.43,0,0,1,46.33,140C44,130.08,46.2,121.28,53,113.66c.29-.32.63-.6,1-.9.51.39.26.95.3,1.44.14,1.48-.29,3,.29,4.45-.46,1-1.38,1.8-1.64,3h3v1.73c-.84,0-1.68.07-2.51.07-1.15,0-2,.35-2.19,1.65a14.35,14.35,0,0,1-.67,2.41c-.33.9.07,1,.83,1,1.83-.1,3.66-.17,5.49-.25V130c-1.11.09-2.22.2-3.33.26-4,.22-4,.27-3.61,4.35.06.55.2.81.79.76,1.81-.17,3.62-.31,5.44-.46a4.29,4.29,0,0,1,.23,1.81c-1.77.17-3.55.37-5.33.51-.61,0-.77.31-.63.83.35,1.3.73,2.6,1.07,3.9.14.5.41.55.89.48,1.25-.16,2.51-.23,3.77-.34V144c-1,.09-1.9.21-2.85.25-.76,0-.9.28-.58.95.69,1.42,1.34,2.86,2,4.3a3.53,3.53,0,0,0-.27,1.73C54.39,153,54.78,154.83,54.2,156.61Z"/><path class="cls-4" d="M78.26,107.91c-.88,1.23-.58,2.69-.65,4a37.38,37.38,0,0,0,2,13.75c.11.34.18.69.28,1-.66.13-.45.66-.45,1,0,1.9,0,3.8,0,5.7,0,.41.15.89-.3,1.2l-9.77.89v-1.8l8.59-.84c-.6-1.26-1.17-2.43-1.73-3.6-.21-.45-.56-.31-.91-.29-1.82.1-3.65.17-5.47.25v-1.8c.75-.06,1.51-.07,2.26-.18,1-.16,2.65.36,3-.37s-.47-2.06-.7-3.14c-.15-.71-.45-1-1.21-.94-1.43.08-2.87.05-4.31.07v-1.71l2.38-.08c2.37-.08,2.38-.08,2.17-2.4,0-.32-.08-.63-.1-1,0-.63-.35-.86-1-.85-1.87,0-3.74,0-5.61,0v-1.68l4.55,0c1.86,0,1.86,0,1.86-1.82s0-1.75-1.74-1.75c-.52,0-1,0-1.55,0v-1.66c.79,0,1.58-.06,2.38,0s1.09-.09,1-.88-.76-.48-1.18-.43c-.74.07-1.48.26-2.22.4V104.6A9.7,9.7,0,0,1,73,104a1.32,1.32,0,0,0,1.42-1.23,41.57,41.57,0,0,1,3.13-8.51,6.36,6.36,0,0,1,.46-.69,6.52,6.52,0,0,1,.28,2.11C78.25,99.73,78.26,103.82,78.26,107.91Z"/><path class="cls-2" d="M420.24,136.88a15,15,0,0,1,.43-4.27,6.51,6.51,0,0,1,5.63-5.15,24.28,24.28,0,0,1,7.75,0,6.59,6.59,0,0,1,5.84,5.38,17,17,0,0,1-.05,8.18,6.54,6.54,0,0,1-5.48,5.18,22.31,22.31,0,0,1-7.38.15c-4.28-.61-6.44-3.07-6.73-7.53C420.2,138.16,420.24,137.51,420.24,136.88Zm15.69,0c0-.52,0-1,0-1.56-.11-2-.72-3.9-2.88-4.5-2.45-.68-5-.88-7.15.93a3.77,3.77,0,0,0-1.1,2.21,15,15,0,0,0-.21,4.28c.14,2.08.79,3.94,3,4.57,2.44.71,4.9.88,7-1C436,140.47,435.91,138.66,435.93,136.91Z"/><path class="cls-2" d="M411.31,136.84a13.1,13.1,0,0,1-.46,4.27,6.43,6.43,0,0,1-5.21,5,21.27,21.27,0,0,1-8.56,0,6.53,6.53,0,0,1-5.44-5.36,17.21,17.21,0,0,1-.05-7.59c.79-3.59,2.6-5.26,6.23-5.8a23.65,23.65,0,0,1,7.51.08c3.66.64,5.64,3.19,6,7.58C411.35,135.64,411.31,136.25,411.31,136.84Zm-4.32,0v-1c0-2.1-.42-4.12-2.64-4.92a7.56,7.56,0,0,0-7.31.69,2.88,2.88,0,0,0-1,1.6,13,13,0,0,0-.05,7,3.85,3.85,0,0,0,2.23,2.51c4.73,2.15,8.77-.41,8.77-5.53Z"/><path class="cls-5" d="M78.26,107.91c0-4.09,0-8.18,0-12.26A6.52,6.52,0,0,0,78,93.54a38.3,38.3,0,0,1,7.09-10,28.43,28.43,0,0,1,5.62-4.82c.35.25.27.62.27,1,0,1.7,0,3.4,0,5.09-.41-.29-.65,0-.9.26-.55.52-1.1,1-1.62,1.58-1.18,1.23-1.14,1.21,0,2.44a21.52,21.52,0,0,1,3.32,3.81c-.85,0-.26,1.14-.94,1.31-1.41-1.46-2.84-2.9-4.23-4.37-.39-.41-.58-.44-1,.06-2,2.51-2,2.5.12,4.83l.33.35c1.81,2,3.62,4.11,5.44,6.16a2.6,2.6,0,0,0-.28,1.37c0,1.49,0,3,0,4.48a16.9,16.9,0,0,1-4.12.56A66.86,66.86,0,0,1,78.26,107.91Zm12.07-5.24c-.39-.47-.65-.8-.94-1.12-1.79-2-3.59-4-5.36-6-1.32-1.48-1.31-1.49-2.21.25-.46.89-1.3,1.83-1.2,2.67s1.32,1.3,1.86,2.07c1.62,2.32,3.7,3.19,6.45,2.37C89.31,102.83,89.71,102.79,90.33,102.67Zm-7.93.7c-.09-.52-.48-.71-.74-1-.57-.64-1.16-1.84-1.84-1.59s-.77,1.54-.93,2.44c0,0,0,.12,0,.14Z"/><path class="cls-6" d="M132,116.17c8.92,10.82,10.11,22.94,5.89,35.89a27.83,27.83,0,0,1-6,10.61,4,4,0,0,1-.33-2c-.09-1.58.28-3.18-.24-4.73.18-.4.36-.8.55-1.19a33.14,33.14,0,0,0-.56-32.33,25.46,25.46,0,0,0,.27-5.23C131.55,116.82,131.33,116.29,132,116.17Z"/><path class="cls-5" d="M79.15,134.67c.45-.31.3-.79.3-1.2,0-1.9,0-3.8,0-5.7,0-.39-.21-.92.45-1L81.54,130c.53-9.56,4.66-16.6,12.8-21.17.08,1.67-.23,3.36.25,5a20.19,20.19,0,0,0-7.43,9.84,19.17,19.17,0,0,0,1.24,15.26,1.59,1.59,0,0,0-.55,1.47c0,1.53,0,3.07,0,4.6a10.15,10.15,0,0,1-2.35-2.5,2.85,2.85,0,0,0-3.23-1.34c-1.15.22-2.35.26-3.53.38v-1.8c1-.1,1.9-.25,2.85-.29s.8-.39.36-.92A31,31,0,0,1,79.15,134.67Z"/><path class="cls-2" d="M466.23,152.4c.87-1.88,1.64-3.62,2.49-5.32a1.89,1.89,0,0,0,0-1.79c-2.4-5.3-4.77-10.62-7.15-15.94-.27-.61-.52-1.22-.83-1.95,1.34,0,2.54,0,3.73,0,.74,0,.83.49,1,1,1.72,4.08,3.42,8.17,5.13,12.25.12.29.26.57.39.85.46-.06.45-.45.57-.7,1.84-4.12,3.69-8.23,5.49-12.37.29-.67.62-1,1.4-.94a12.72,12.72,0,0,0,2.39,0c.93-.07.86.28.56,1q-5.3,11.65-10.55,23.33a1,1,0,0,1-1.05.71C468.7,152.36,467.58,152.4,466.23,152.4Z"/><path class="cls-7" d="M149.8,134.27c0-3,0-6,0-9s1.08-3.9,3.92-3.9,5.52-.07,8.27,0c5,.18,8.59,3.08,9.43,8a22.56,22.56,0,0,1-.73,11.46,8.16,8.16,0,0,1-8,5.69c-3.2,0-6.39,0-9.59,0-2.45,0-3.29-.87-3.3-3.34Zm2.1-.11c0,3,0,6.07,0,9.11,0,1,.29,1.56,1.4,1.55,3.11,0,6.23.06,9.34-.07,3.46-.15,5.46-1.82,6.33-5.15a24.47,24.47,0,0,0,.38-9.75c-.59-4-3-6.27-6.8-6.57-3.1-.24-6.23-.1-9.34-.08-1,0-1.31.67-1.3,1.61C151.91,127.93,151.9,131,151.9,134.16Z"/><path class="cls-8" d="M119.06,70.61a65.21,65.21,0,0,1,9.36.61q0,5.09,0,10.19a3,3,0,0,0,.28,1.51,40.29,40.29,0,0,1-8.36,10.51,27.13,27.13,0,0,1-2.68,2.46c-.18-1.82.24-3.68-.31-5.48.82-.88,1.6-1.78,2.45-2.62.44-.44.41-.71,0-1.14-1.53-1.51-3-3.06-4.53-4.6a5.52,5.52,0,0,1,.24-2.21c1.34,1.31,2.69,2.62,4,3.94,2.05,2,2,2,3.69-.39.41-.59.45-1-.11-1.5-1.46-1.41-2.84-2.9-4.26-4.36a5.07,5.07,0,0,1,.34-2.14l5.5,5.68c1-1.68,1.85-3.21,2.62-4.78.36-.74.09-.85-.58-.93-2.61-.32-5.23-.56-7.85-.65A13.46,13.46,0,0,1,119.06,70.61Z"/><path class="cls-2" d="M246.92,137.77c0-2.44,0-4.87,0-7.31,0-2.17.82-3,3-3q8.64,0,17.28,0a6.34,6.34,0,0,1,3.46.78,4.27,4.27,0,0,1,2,3.88c.06,4.56,0,9.11.08,13.67,0,.94-.56.74-1.1.79s-.9-.14-.9-.85c0-4.24,0-8.48,0-12.71,0-2.8-.9-3.73-3.73-3.79-1.72,0-3.44,0-5.16,0-.83,0-1.08.23-1.08,1.08,0,5.07,0,10.15,0,15.23,0,.82-.21,1.07-1.06,1.09s-.91-.46-.91-1.11c0-5,0-9.92,0-14.87,0-1.2-.35-1.47-1.47-1.43-2.32.09-4.64,0-7,0-1.43,0-1.58.17-1.58,1.58,0,4.88,0,9.76,0,14.63,0,.74-.05,1.16-1,1.17s-1-.5-1-1.19C246.93,142.89,246.92,140.33,246.92,137.77Z"/><path class="cls-7" d="M192.43,140.81V130.14a2.22,2.22,0,0,1,2.14-2.54,27.5,27.5,0,0,1,8,.16,6.75,6.75,0,0,1,5.28,6.1,26.28,26.28,0,0,1-.06,6.33c-.51,4.07-3.1,6.32-7.32,6.41-1.63,0-3.28.05-4.91,0-.9,0-1.28.16-1.21,1.16.09,1.35,0,2.72,0,4.07.05.83-.32.9-1,.89s-1,0-1-.86C192.46,148.16,192.43,144.49,192.43,140.81Zm1.94-3.65c0,2.27,0,4.55,0,6.83,0,.6.15.85.8.84,1.88,0,3.76,0,5.64,0a4.77,4.77,0,0,0,4.86-4.39,22.53,22.53,0,0,0,.05-6.56c-.42-2.88-2-4.44-4.92-4.57-1.72-.08-3.44,0-5.16,0-.89,0-1.29.37-1.27,1.31C194.4,132.76,194.37,135,194.37,137.16Z"/><path class="cls-7" d="M224.68,138.12c0,2.07,0,4.15,0,6.23,0,1.58-.72,2.23-2.32,2.24-2.84,0-5.68,0-8.52,0-2.45,0-3.7-1.12-4.25-3.55a10.44,10.44,0,0,1,.05-4.75c.46-2,2.07-3.1,4.53-3.13s5.12,0,7.67,0c.72,0,1-.16,1-.93s0-1.52-.06-2.27a2.63,2.63,0,0,0-3-2.71c-2.64,0-5.27,0-7.91,0-.69,0-1.11-.05-1.09-.94s.41-.87,1-.87c2.76,0,5.52,0,8.28,0s4.41,1.54,4.61,4.41c0,.23,0,.47,0,.71,0,1.84,0,3.68,0,5.52Zm-6.92,6.7c1.28,0,2.56,0,3.83,0,.8,0,1.18-.28,1.17-1.12q0-3,0-6c0-.52-.09-.8-.71-.79-2.71,0-5.43,0-8.14,0a2.26,2.26,0,0,0-2.31,2,9.09,9.09,0,0,0,.06,3.92,2.26,2.26,0,0,0,2.39,1.92C215.28,144.84,216.52,144.82,217.76,144.82Z"/><path class="cls-7" d="M283.18,137.76c-1.84,0-3.68,0-5.51,0-.62,0-.86.17-.82.81a13.92,13.92,0,0,0,.35,3.08,4.19,4.19,0,0,0,4.15,3.17c2.8,0,5.59,0,8.39,0,.61,0,1.06,0,1.06.84s-.32,1-1.06,1c-2.88,0-5.75,0-8.63,0a6.12,6.12,0,0,1-6.1-5.35,30,30,0,0,1-.16-6.69c.35-4.61,2.95-6.87,8-7.08a12.84,12.84,0,0,1,3.33.31,6.76,6.76,0,0,1,4.93,8.22,2.16,2.16,0,0,1-2.29,1.71c-1.88,0-3.76,0-5.64,0Zm-.35-1.82h5.27a.88.88,0,0,0,1.08-.84,5.24,5.24,0,0,0-3.44-5.53,10.57,10.57,0,0,0-5.21-.07c-2.39.55-3.56,2.51-3.64,5.63,0,.68.19.83.79.82C279.4,135.92,281.12,135.94,282.83,135.94Z"/><path class="cls-7" d="M181.49,137.76c-1.76,0-3.52.05-5.27,0-.88,0-1.07.27-1,1.08a15.94,15.94,0,0,0,.27,2.49,4.27,4.27,0,0,0,4.25,3.5c2.8,0,5.6,0,8.39,0,.65,0,1,.06,1,.88s-.27.94-1,.93c-2.83,0-5.67,0-8.51,0a5.91,5.91,0,0,1-6.16-4.95,21.17,21.17,0,0,1,0-8.79,6.44,6.44,0,0,1,5.83-5.19,13.61,13.61,0,0,1,5.58.23,6.74,6.74,0,0,1,4.56,8,2.21,2.21,0,0,1-2.36,1.79c-1.87,0-3.75,0-5.63,0Zm-.31-1.82h5.15c.54,0,1,0,1.15-.74a5.05,5.05,0,0,0-4.22-5.82,21,21,0,0,0-2.63-.1c-3.92,0-5.29,2.5-5.43,5.87,0,.66.23.81.83.8C177.74,135.92,179.46,135.94,181.18,135.94Z"/><path class="cls-2" d="M413.71,133.8c0-3.79,0-7.59,0-11.38,0-.77.11-1.12,1-1.12,3.16,0,3.16,0,3.16,3.15,0,6.87,0,13.74,0,20.6,0,1-.28,1.26-1.26,1.24-2.92,0-2.92,0-2.92-2.91Z"/><path class="cls-7" d="M293.31,137.73c0-2.52,0-5,0-7.55,0-2.07.68-2.73,2.76-2.7a71.92,71.92,0,0,1,7.91.13,4.65,4.65,0,0,1,4.4,4.92c.06,4.4,0,8.8,0,13.2,0,.81-.32.89-1,.89s-1-.1-1-.9c.05-4,0-8.08,0-12.11a5.87,5.87,0,0,0-.36-2.36,2.82,2.82,0,0,0-2.42-1.89c-2.55-.23-5.11-.06-7.67-.1-.87,0-.78.62-.78,1.18v12.47c0,1,0,1.92,0,2.88.05.75-.3.84-.92.83s-1.06,0-1-.85C293.34,143.09,293.31,140.41,293.31,137.73Z"/><path class="cls-9" d="M117.34,90.41c.55,1.8.13,3.66.31,5.48a39.25,39.25,0,0,1-10.1,6.37c-.38-.31-.25-.74-.25-1.12a14.74,14.74,0,0,0-.24-3.45c.89-.52,1.76-1.08,2.68-1.55s1-.73.22-1.44c-1.64-1.56-3.2-3.22-4.8-4.84.73-.36.33-1.23.77-1.72,1.39,1.37,2.79,2.73,4.17,4.1,2.32,2.31,2.29,2.28,4.86.21.72-.58.59-.89,0-1.45-1.71-1.65-3.37-3.36-5.06-5a6.25,6.25,0,0,1,.28-2.27c2.07,2,4.13,4.09,6.21,6.12C116.67,90.05,116.82,90.53,117.34,90.41Z"/><path class="cls-6" d="M128.69,82.92a3,3,0,0,1-.28-1.51q0-5.1,0-10.19c.82.14,1.19-.29,1.42-1,.44-1.45.95-2.87,1.46-4.29a2.24,2.24,0,1,1,4.24,1.43c-.38,1.22-.78,2.43-1.25,3.61-.32.78-.18,1,.68,1.11a2.21,2.21,0,0,1,2.18,1.88,2.13,2.13,0,0,1-1,2.25,3.31,3.31,0,0,1-2.67.06c-1-.19-1.31.16-1.68,1A46.25,46.25,0,0,1,128.69,82.92Z"/><path class="cls-7" d="M312.42,136.69c0-2.31-.07-4.23,0-6.15.06-1.1-.32-1.37-1.34-1.32-.46,0-1.27.49-1.34-.6,0-.83.09-1.23,1.07-1.17,1.58.08,1.58,0,1.58-1.56,0-1.24.05-2.48,0-3.72,0-.79.36-.81.94-.79s1.09-.06,1,.83c-.07,1.31.05,2.64,0,4-.06,1,.15,1.46,1.28,1.34s2.16,0,3.23,0c.79,0,.79.39.81,1s-.17.87-.81.85c-1.2,0-2.4,0-3.6,0-.65,0-.91.14-.9.85,0,3.8,0,7.6,0,11.39,0,2.53.79,3.25,3.32,3.33.36,0,.72,0,1.08,0,.6,0,1.06,0,1.06.84s-.32,1-1.06,1a17,17,0,0,1-3.34-.2,3.54,3.54,0,0,1-2.79-2.94C312.22,141.1,312.52,138.69,312.42,136.69Z"/><path class="cls-7" d="M238.12,136.2c0-2.18-.09-3.9,0-5.62.08-1.15-.34-1.44-1.4-1.34-.55,0-1.33.31-1.29-.82,0-.7.17-1,.94-1,1.73,0,1.73,0,1.73-1.77,0-1.2,0-2.4,0-3.6,0-.9.57-.67,1-.69s1-.13.93.67c0,1.48,0,3,0,4.44,0,.82.26,1,1,1,1.16-.06,2.32,0,3.48,0,.7,0,.77.3.77.86s0,1-.81,1c-1.15-.06-2.32,0-3.48,0-.7,0-1,.17-1,.93,0,3.68,0,7.36,0,11,0,2.85.82,3.58,3.69,3.6a7.69,7.69,0,0,0,1,0c.74-.1.82.3.84.92s-.17.94-.87.88a19.08,19.08,0,0,1-3.46-.19,3.65,3.65,0,0,1-2.91-3.25A62.8,62.8,0,0,1,238.12,136.2Z"/><path class="cls-2" d="M388.9,136.92c0,2.8,0,5.6,0,8.39,0,.72-.18,1-.93,1-3.27.07-3.27.1-3.27-3.15,0-4.92,0-9.83,0-14.74,0-.75.15-1.1,1-1,1,.1,2.35-.42,3,.2s.2,2,.22,3C388.93,132.69,388.9,134.8,388.9,136.92Z"/><path class="cls-7" d="M334.86,131.76c.4,0,.8,0,1.19,0,3.35.17,5.21,1.81,5.74,5.13a11.48,11.48,0,0,1-.56,6.35,4.64,4.64,0,0,1-3.05,2.82,11.57,11.57,0,0,1-6.72,0,4.87,4.87,0,0,1-3.36-3.59,12,12,0,0,1-.15-6.26c.67-2.79,2.3-4.14,5.23-4.41.56-.05,1.12,0,1.68,0Zm5.43,7.42a17.34,17.34,0,0,0,0-2c-.25-2.27-1.15-3.37-3.14-3.82a11.16,11.16,0,0,0-4.64,0,3.6,3.6,0,0,0-3,3,16.81,16.81,0,0,0-.2,3.94c0,3.16,1.47,4.69,4.61,4.92C338.64,145.51,340.35,143.92,340.29,139.18Z"/><path class="cls-8" d="M132,116.17c-.67.12-.45.65-.46,1a25.46,25.46,0,0,1-.27,5.23,27.26,27.26,0,0,0-11.05-9.81c.5-1.52.18-3.08.27-4.63a29,29,0,0,1,10.59,7.07C131.4,115.43,131.69,115.8,132,116.17Z"/><path class="cls-8" d="M131.28,156c.52,1.55.15,3.15.24,4.73a4,4,0,0,0,.33,2,44.74,44.74,0,0,1-9.6,8.72c-.7-.11-.52-.66-.56-1.11-.11-1.24.25-2.52-.24-3.74C125.14,163.41,128.71,160.15,131.28,156Z"/><path class="cls-10" d="M107.06,97.69a14.74,14.74,0,0,1,.24,3.45c0,.38-.13.81.25,1.12a38.23,38.23,0,0,1-8.65,3.24,12.84,12.84,0,0,1,0-5.38,1.23,1.23,0,0,0,1.29.37,43.21,43.21,0,0,0,4.53-1.78L97.9,91.76c.43-.58.1-1.37.51-2l7.36,7.26C106.12,97.41,106.43,97.88,107.06,97.69Z"/><path class="cls-5" d="M93.86,179.44a41.2,41.2,0,0,1-13-2.8c.1-1.51-.22-3,.25-4.54A51.86,51.86,0,0,0,93.86,175Z"/><path class="cls-11" d="M66.74,115.24v1.68c-2.71,0-5.43.12-8.13,0-1.72-.08-3.13.15-4.06,1.74-.58-1.45-.15-3-.29-4.45,0-.49.21-1-.3-1.44a25.36,25.36,0,0,1,7.75-5.41c.09,1.59-.23,3.21.25,4.78a22.58,22.58,0,0,0-4,3.11Z"/><path class="cls-10" d="M105.93,88.14c-.44.49,0,1.36-.77,1.72L97,81.61a28.43,28.43,0,0,0,.24-5.53.87.87,0,0,0-.52-1,25.11,25.11,0,0,1,7-2.66c0,.67,0,1.35,0,2s-.35,1.66.3,2.38c-.23.38.19.58.24.89-1,.09-.21,1.22-.87,1.5-1.07-1.53-2.36-1.59-3.81-.55a4.75,4.75,0,0,1-.76.34c-1.22.61-1.22.64-.27,1.61Z"/><path class="cls-11" d="M54.2,156.61c.58-1.78.19-3.61.29-5.42a3.53,3.53,0,0,1,.27-1.73,62.9,62.9,0,0,0,8.1,10.62c-.71.18-.38.77-.44,1.19-.17,1.36.33,2.77-.28,4.11A41.91,41.91,0,0,1,54.2,156.61Z"/><path class="cls-12" d="M98.89,100.12a12.84,12.84,0,0,0,0,5.38,37.9,37.9,0,0,1-7.68,1.55c0-1.49,0-3,0-4.48a2.6,2.6,0,0,1,.28-1.37,1.83,1.83,0,0,0,2.38,1c.78-.18,1.56-.36,2.33-.56,1.28-.32,1.28-.33.34-1.32L90.8,94.17c.68-.17.09-1.26.94-1.31a1.52,1.52,0,0,1,.51.25Q95.58,96.6,98.89,100.12Z"/><path class="cls-12" d="M96.69,75.11a.87.87,0,0,1,.52,1A28.43,28.43,0,0,1,97,81.61c-.8-1.1-1.69-.78-2.58-.14-.48.34-.91.74-1.39,1.08-1.23.85-1.22.9-.08,1.83a49.29,49.29,0,0,1,5.49,5.42c-.41.59-.08,1.38-.51,2l-6.94-7c0-1.69,0-3.39,0-5.09,0-.35.08-.72-.27-1A23.86,23.86,0,0,1,96.69,75.11Z"/><path class="cls-13" d="M104,76.85c-.65-.72-.22-1.59-.3-2.38s0-1.35,0-2a41.3,41.3,0,0,1,8.17-1.6V75.1c-.41.22-.71.37-.18.88,1.3,1.25,2.54,2.57,3.8,3.86a5.52,5.52,0,0,0-.24,2.21c-1.88-1.84-3.79-3.65-5.62-5.54a1.81,1.81,0,0,0-2-.56C106.41,76.28,105.21,76.55,104,76.85Z"/><path class="cls-4" d="M81.14,172.1c-.47,1.49-.15,3-.25,4.54a39.92,39.92,0,0,1-10.08-4.81c.41-.71.18-1.48.24-2.23A6.13,6.13,0,0,1,71.3,167,71,71,0,0,0,81.14,172.1Z"/><path class="cls-14" d="M71.3,167a6.13,6.13,0,0,0-.25,2.59c-.06.75.17,1.52-.24,2.23a42.12,42.12,0,0,1-8.67-6.45c.61-1.34.11-2.75.28-4.11.06-.42-.27-1,.44-1.19a5.84,5.84,0,0,1,.84.81A84.39,84.39,0,0,0,71.3,167Z"/><path class="cls-10" d="M93.86,179.44V175a46.8,46.8,0,0,0,10.77-.61l0,4.45A38.08,38.08,0,0,1,93.86,179.44Z"/><path class="cls-14" d="M62,112.13c-.48-1.57-.16-3.19-.25-4.78a27.76,27.76,0,0,1,8.14-2.75c0,1.46,0,2.92,0,4.39-.71.37-1.59.33-2.43.94h2.44v1.66l-4.42,0A6.42,6.42,0,0,0,62,112.13Z"/><path class="cls-9" d="M120.49,108c-.09,1.55.23,3.11-.27,4.63a34.12,34.12,0,0,0-9.56-2.53v-4.42A29,29,0,0,1,120.49,108Z"/><path class="cls-9" d="M121.45,166.54c.49,1.22.13,2.5.24,3.74,0,.45-.14,1,.56,1.11a34.41,34.41,0,0,1-9.19,5v-4.78A57.94,57.94,0,0,0,121.45,166.54Z"/><path class="cls-2" d="M234,127.47c.75-.12,1.41,0,1.22,1.2-.07.49-.26.58-.68.59a13.48,13.48,0,0,0-1.9.13,3.42,3.42,0,0,0-3,2.84,9.65,9.65,0,0,0-.21,2.14c0,3.75,0,7.5,0,11.25,0,.78-.21,1-1,1s-1-.32-1-1c0-3.9,0-7.82,0-11.73C227.53,129.66,229.66,127.51,234,127.47Z"/><path class="cls-10" d="M94.59,113.82c-.48-1.65-.17-3.34-.25-5a24.72,24.72,0,0,1,8.64-2.89v4.46c-.31.09-.61.2-.91.27A23.58,23.58,0,0,0,94.59,113.82Z"/><path class="cls-13" d="M113.06,171.64v4.78a29.93,29.93,0,0,1-8.39,2.43c0-1.48,0-3,0-4.45A54.3,54.3,0,0,0,113.06,171.64Z"/><path class="cls-2" d="M344.87,139.71c0-1.8,0-3.6,0-5.4,0-.79-.13-1.21-1-1.08-.46.06-.94.13-.93-.66s.43-.75.93-.7c.72.08,1-.13,1.07-.94a4.13,4.13,0,0,1,4.66-3.78c.36,0,.64.06.6.52s.12.75-.45.79a9.62,9.62,0,0,0-1.31.19,2.71,2.71,0,0,0-2.09,2.71c0,.49.26.51.6.51.84,0,1.68,0,2.52,0,.58,0,.74.21.75.77s-.33.64-.76.61a1.92,1.92,0,0,0-.24,0c-.91,0-2.11-.29-2.67.17s-.2,1.8-.21,2.74c0,3.07,0,6.15,0,9.23,0,.52.11,1-.74,1s-.7-.55-.7-1C344.87,143.47,344.87,141.59,344.87,139.71Z"/><path class="cls-7" d="M208,93.7c.47-1,1-1.8,1.28-2.69a1.25,1.25,0,0,1,1.77-.92,8.11,8.11,0,0,1-1.17,2.4,6.93,6.93,0,0,0-1.26,4.72c.08.57-.07.89-.76.87s-.83-.19-.74-.76c.48-2.88-1.58-4.79-2.73-7.43-.14.93-.46,1.27-1.12,1.13-1.17-.23-1.39.38-1.34,1.41.07,1.55,0,3.11,0,4.67,0,.55,0,1-.77,1s-.7-.44-.69-.94c0-1.68-.06-3.36,0-5,0-.93-.29-1.22-1.15-1.09a6,6,0,0,1-.6,0c-.33,0-.51-.09-.52-.46s.12-.57.54-.57a30.52,30.52,0,0,0,5.15,0c2.19-.32,2.8,1.06,3.46,2.59C207.5,92.91,207.7,93.24,208,93.7Z"/><path class="cls-15" d="M162.9,95.56c0-1.53,0-3,0-4.47,0-.41-.36-1.12.59-1.1s.55.64.56,1c0,2,0,4,0,6,0,.38.25,1-.44,1s-1.28.28-1.66-.53c-.62-1.3-1.29-2.56-1.95-3.84-.23-.44-.49-.87-.74-1.31l-.33,0v3.81a7.85,7.85,0,0,1,0,.84c0,.41.26,1-.58,1s-.58-.62-.59-1c0-2,0-4,0-6,0-.37-.29-1,.42-1s1.35-.33,1.77.55c.72,1.51,1.5,3,2.27,4.47A.69.69,0,0,0,162.9,95.56Z"/><path class="cls-13" d="M103,110.38v-4.46a29.05,29.05,0,0,1,7.68-.23v4.42A34.62,34.62,0,0,0,103,110.38Z"/><path class="cls-9" d="M111.85,75.1V70.85a66.72,66.72,0,0,1,7.21-.24,13.46,13.46,0,0,0-.22,4.1l.31.68a5.07,5.07,0,0,0-.34,2.14c-.65-.62-1.36-1.2-2-1.88a2.12,2.12,0,0,0-2.07-.78C113.82,75,112.83,75,111.85,75.1Z"/><path class="cls-7" d="M250.94,106.64c0,1.58,0,3.17,0,4.75,0,.41.28,1-.54,1.07s-.58-.7-.59-1.13q0-2.94,0-5.88c0-.36-.31-1,.39-1s1.34-.35,1.76.53a48.52,48.52,0,0,0,2.93,5.34v-4.42c0-.32,0-.64,0-1s.19-.54.58-.53.6.09.6.53q0,3.48,0,7c0,.4-.16.6-.56.57-.57,0-1.19.2-1.55-.55-.72-1.51-1.5-3-2.27-4.48-.14-.28-.3-.55-.45-.82Z"/><path class="cls-7" d="M212.17,108.31c0,2.75-1.38,4.27-3.77,4.26s-3.67-1.51-3.64-4.08,1.45-4.23,3.72-4.22S212.19,105.77,212.17,108.31Zm-1.58.08c0-2-.62-3-1.94-3.06s-2.26.92-2.34,3,.73,3.28,2.15,3.27S210.58,110.46,210.59,108.39Z"/><path class="cls-7" d="M256.44,94.25,259,97.93a1.78,1.78,0,0,1-2.43-.93c-.47-.91-1.12-1.74-1.78-2.76a10.76,10.76,0,0,0-.15,2.9c0,.51,0,.94-.72.94s-.77-.3-.76-.87q0-3.24,0-6.48c0-.57.17-.78.74-.74s1.28,0,1.92,0c1.55,0,2.26.5,2.45,1.59C258.48,92.88,258,93.57,256.44,94.25Zm-1.85-2.08c.26.39-.5,1.34.7,1.32.84,0,1.47-.29,1.5-1.27s-.55-1.25-1.43-1.3C254.29,90.85,254.69,91.61,254.59,92.17Z"/><path class="cls-7" d="M221.57,94c-.06,2.61-1.32,4.1-3.48,4.17-1.47,0-2.78-.33-3.41-1.73a5.11,5.11,0,0,1,.37-5.25A3.42,3.42,0,0,1,218.81,90C220.66,90.32,221.62,91.74,221.57,94Zm-5.84.06c0,2,.7,3,2,3.1s2.19-1,2.27-2.79c.1-2.19-.61-3.39-2-3.44S215.73,92,215.73,94.06Z"/><path class="cls-7" d="M270,93.82c1.12.64,1.61,1.42,1.31,2.56A2.3,2.3,0,0,1,269,98.06c-2.86.25-2.86.24-2.86-2.56,0-1.52,0-3,0-4.55,0-.81.25-1,1-1a11.36,11.36,0,0,0,1.43,0c1,0,2,.1,2.41,1.15A2.13,2.13,0,0,1,270,93.82Zm-2.55,1.85c.29.46-.56,1.54.81,1.49.89,0,1.57-.33,1.62-1.36s-.52-1.42-1.62-1.48S267.6,95.1,267.45,95.67Zm.7-4.74c-.68-.2-.78.35-.65.9s-.6,1.56.72,1.57c.77,0,1.29-.27,1.34-1.15S269.17,90.94,268.15,90.93Z"/><path class="cls-7" d="M184.09,94.46c0,1,0,1.9,0,2.85,0,.57-.17.76-.74.77s-.73-.24-.73-.79c0-2.19,0-4.38,0-6.58,0-.46.06-.75.63-.72.88.05,1.76,0,2.63.05a1.79,1.79,0,0,1,1.85,1.55,1.86,1.86,0,0,1-1.14,2.34c-.77.28-.53.56-.23,1,.69,1,1.36,2,2.09,3a1.73,1.73,0,0,1-2.41-.88c-.5-.93-1.14-1.79-1.72-2.68Zm0-2.2c.23.34-.47,1.28.75,1.22.86,0,1.45-.32,1.45-1.31s-.54-1.18-1.36-1.25C183.79,90.81,184.15,91.6,184.08,92.26Z"/><path class="cls-7" d="M177.16,107.51c0-.8,0-1.6,0-2.4,0-.48.1-.72.66-.73s.67.24.66.73c0,1.75,0,3.51-.12,5.26-.12,1.49-1.21,2.22-3,2.24s-2.82-.67-3-2.21a53.61,53.61,0,0,1-.12-5.38c0-.59.31-.62.76-.63s.82,0,.81.69c0,1.56,0,3.12,0,4.68,0,1.21.52,1.75,1.6,1.79s1.72-.53,1.79-1.76c0-.76,0-1.52,0-2.28Z"/><path class="cls-7" d="M156.06,93.25c0,.76,0,1.52,0,2.28-.06,1.69-1,2.55-2.75,2.65-2.11.12-3.22-.54-3.38-2.32s-.07-3.51-.12-5.26c0-.62.35-.58.77-.61s.8.1.79.72c0,1.55,0,3.11,0,4.67,0,1.25.62,1.81,1.76,1.77a1.61,1.61,0,0,0,1.67-1.79c.05-1.48,0-3,0-4.44,0-.45-.17-1,.65-.94s.58.58.59,1c0,.75,0,1.51,0,2.27Z"/><path class="cls-7" d="M251.52,96.11c0,1.74,0,1.74-1.65,2-2,.29-3.63-.31-4.34-1.58A5.29,5.29,0,0,1,246,91.2a4.75,4.75,0,0,1,4.87-1c.33.12.59.23.54.64s-.45.29-.73.27-.64-.08-1-.09c-1.19,0-2.28.23-2.8,1.42a3.79,3.79,0,0,0,.26,3.87,2.61,2.61,0,0,0,2.51.79c.38,0,.42-.3.41-.6,0-.48,0-1,0-1.44-.06-.63.28-.68.79-.7s.66.26.63.72S251.52,95.75,251.52,96.11Z"/><path class="cls-15" d="M232.46,97.05c1.34,0,2.46,0,3.57,0,.42,0,.7,0,.68.57s-.33.46-.67.46c-1.4,0-2.8,0-4.2,0-.36,0-.86.22-1.06-.28a1.33,1.33,0,0,1,.26-1.24q1.49-2.1,2.93-4.24c.23-.34.77-.69.51-1.11s-.81-.14-1.23-.16-1.12,0-1.68,0c-.38,0-.6-.09-.6-.53s.26-.51.62-.51c1.24,0,2.48,0,3.72,0,.43,0,1-.29,1.27.28s-.14,1-.44,1.42q-1.47,2.12-2.93,4.24Z"/><path class="cls-7" d="M240.66,95.58c-1.12-.35-1.53.23-1.68,1.21a3.05,3.05,0,0,1-.36,1c-.25.45-.74.31-1.08.22s-.15-.46-.06-.7c.8-2.25,1.63-4.49,2.39-6.75.2-.57.55-.54,1-.58a.86.86,0,0,1,1,.71c.72,2.16,1.48,4.3,2.19,6.45.09.27.52.73-.06.86s-1.06.29-1.33-.4a3.74,3.74,0,0,1-.26-.8C242.27,95.77,241.76,95.23,240.66,95.58Zm1-1.13a17.64,17.64,0,0,0-1.08-2.82L240.19,93C239.62,94.73,239.62,94.73,241.7,94.45Z"/><path class="cls-7" d="M162.7,112.34c-1.19.39-1.68-.09-1.94-1.13A2.13,2.13,0,0,0,157.9,110c-.31.14-.31.44-.4.68-.18.49-.31,1-.49,1.48s-.67.37-1,.32c-.56-.08-.24-.49-.15-.73.77-2.22,1.59-4.42,2.35-6.65.2-.58.52-.68,1.06-.67s.82.09.95.65.37,1,.55,1.58ZM159,105.79c-.23.69-.36,1.1-.49,1.51-.58,1.82-.58,1.82,1.47,1.55C159.71,107.91,159.42,107,159,105.79Z"/><path class="cls-15" d="M260,94c0-1.08,0-2.16,0-3.24,0-.46.07-.76.65-.74,1.11,0,2.23,0,3.35,0,.35,0,.63,0,.63.5s-.2.56-.59.54-.71,0-1.07,0c-1.55,0-1.56,0-1.47,1.63,0,.49.14.75.68.7a3.37,3.37,0,0,1,.84,0c.37.06,1-.27,1,.51s-.58.49-1,.51c-1.39.05-2,1-1.49,2.31.13.37.38.35.65.36.68,0,1.36,0,2,0,.42,0,.58.15.56.56s-.19.47-.53.47c-1.2,0-2.4,0-3.6,0-.56,0-.65-.29-.65-.76C260,96.21,260,95.09,260,94Z"/><path class="cls-7" d="M242.92,108.37c0-1.08,0-2.16,0-3.23,0-.58.19-.77.76-.75,1.07,0,2.15,0,3.23,0,.34,0,.61,0,.61.48s-.18.56-.57.54-.72,0-1.08,0c-1.42,0-1.85.6-1.47,2,.17.62.64.25,1,.37.49.19,1.41-.44,1.45.44.06,1.08-1,.55-1.45.54-1.09,0-1,.62-1,1.31s-.31,1.54.94,1.42c.59,0,1.19,0,1.79,0,.38,0,.6.11.58.55s-.24.45-.55.45c-1.19,0-2.39,0-3.59,0-.55,0-.65-.27-.64-.74C242.93,110.6,242.92,109.48,242.92,108.37Z"/><path class="cls-7" d="M266.43,108.62c0-1.38,0-2.46,0-3.54,0-.51.17-.7.69-.69,1.08,0,2.15,0,3.23,0,.39,0,.7,0,.68.54s-.29.49-.63.48-.88,0-1.31,0c-1-.13-1.21.26-1.22,1.19s.24,1.31,1.18,1.17a5.87,5.87,0,0,1,.84,0c.34,0,.5.13.5.49s-.13.53-.49.52h-.36c-1.64.06-1.94.49-1.64,2.16.09.52.4.51.76.52.64,0,1.27,0,1.91,0,.34,0,.64,0,.65.48s-.24.53-.6.52h-.24c-1.27-.07-3,.54-3.69-.23S266.56,109.65,266.43,108.62Z"/><path class="cls-7" d="M175.54,90.13c-.89,2.5-1.79,5-2.65,7.44-.18.52-.54.48-.94.49s-.77,0-.95-.49c-.84-2.48-1.71-5-2.57-7.43,1.13-.42,1.66,0,2,1,.45,1.65,1,3.25,1.61,5a6.5,6.5,0,0,0,.9-2.23,28.19,28.19,0,0,0,.93-3C174.06,90,174.59,89.81,175.54,90.13Z"/><path class="cls-7" d="M263.2,111.39c.33.22,1.07-.55,1.2.26s-.75.64-1.22.74c-1.59.32-3.2.3-4.21-1.2a4.72,4.72,0,0,1-.05-5.12A4.21,4.21,0,0,1,264,104.6c.31.15.43.31.41.62,0,.48-.36.32-.62.28l-.47-.08c-2.2-.26-3.44.74-3.53,2.84C259.73,110.55,260.72,111.49,263.2,111.39Z"/><path class="cls-7" d="M226.62,104.35a4.19,4.19,0,0,1,1.64.27c.37.14.29.45.25.71s-.33.2-.55.17c-.52,0-1-.11-1.55-.12a1,1,0,0,0-1,.69.94.94,0,0,0,.51,1.11c.52.3,1.05.58,1.57.87a2.25,2.25,0,0,1,1.28,2.68,2.32,2.32,0,0,1-2.25,1.81,7.09,7.09,0,0,1-2.25-.27c-.35-.06-.4-.34-.39-.64,0-.47.34-.31.61-.29a13.25,13.25,0,0,0,1.67.1,1.08,1.08,0,0,0,1.17-.83,1.11,1.11,0,0,0-.65-1.28c-.41-.23-.84-.45-1.25-.69-1.26-.73-1.73-1.62-1.44-2.72S225.12,104.34,226.62,104.35Z"/><path class="cls-7" d="M235.55,111.39c.34.25,1.15-.57,1.25.32s-.8.6-1.27.69c-2,.4-3.51-.12-4.26-1.36a5.15,5.15,0,0,1,.3-5.32,4.31,4.31,0,0,1,4.58-1.21c.39.12.83.22.68.77s-.61.18-.89.14c-3.4-.45-4.15,2.06-3.5,4.43C232.77,111,233.72,111.46,235.55,111.39Z"/><path class="cls-7" d="M168.28,112.53c-2.67,0-4-1.24-4.11-3.55-.13-2.61,1.22-4.42,3.45-4.61a5.72,5.72,0,0,1,2.25.21.53.53,0,0,1,.42.62c0,.45-.33.34-.6.3a7.9,7.9,0,0,0-.83-.12c-1.17,0-2.27.21-2.79,1.41a3.6,3.6,0,0,0,.23,3.75c.77,1.06,2,.86,3.07.84.32,0,.87-.41.92.32,0,.56-.43.57-.83.64Z"/><path class="cls-7" d="M190.77,97.06l.91,0a1,1,0,0,0,1-.86,1,1,0,0,0-.53-1.11c-.54-.34-1.1-.65-1.66-1a2.18,2.18,0,0,1-1.14-2.63c.25-1.11,1.14-1.44,2.16-1.53a6,6,0,0,1,1.89.22c.46.12.59.37.49.78s-.43.16-.67.14c-.87,0-2-.58-2.41.56s.93,1.36,1.64,1.8,1.51.91,1.68,1.89a2.37,2.37,0,0,1-2.45,2.84,8,8,0,0,1-1.89-.24c-.4-.06-.71-.19-.64-.67.09-.64.55-.24.85-.28A7,7,0,0,1,190.77,97.06Z"/><path class="cls-2" d="M176.61,93.94c0-1,0-2.07,0-3.11,0-.59.1-.87.77-.84,1,.05,2.08,0,3.12,0,.3,0,.65-.08.68.43s-.28.58-.68.57a9.59,9.59,0,0,1-1.2,0c-1-.16-1.23.27-1.24,1.24s.34,1.25,1.22,1.13a5.89,5.89,0,0,1,.84,0c.29,0,.41.15.41.44s0,.56-.43.55a4.33,4.33,0,0,1-.72,0c-1.05-.19-1.29.23-1.33,1.28-.06,1.29.4,1.6,1.54,1.44a12,12,0,0,1,1.2,0c.32,0,.54.1.55.47s-.15.51-.51.51h-3.71c-.55,0-.5-.39-.5-.75Z"/><path class="cls-7" d="M149.8,108.37c0-1.08,0-2.16,0-3.23,0-.58.19-.77.76-.75,1.08,0,2.16,0,3.23,0,.37,0,.61,0,.61.49s-.2.55-.59.53-.81,0-1.2,0c-1-.14-1.31.21-1.29,1.23,0,.86.19,1.28,1.12,1.13a6.14,6.14,0,0,1,1,0c.29,0,.43.13.42.44s0,.57-.42.57h-.12c-.62.16-1.5-.4-1.84.35a6,6,0,0,0-.09,2c0,.39.15.83-.11,1.16s-.67.16-1,.15-.41-.29-.41-.59C149.81,110.69,149.8,109.53,149.8,108.37Z"/><path class="cls-7" d="M223,94c0-1,.06-2,0-3s.27-1.09,1.08-1c1,.06,1.92,0,2.88,0,.33,0,.63,0,.64.46s-.26.58-.67.56h-1c-1.44,0-1.86.57-1.49,2,.16.63.64.26,1,.38.49.19,1.41-.44,1.46.44.06,1.08-.95.53-1.45.54-.82,0-1,.33-1,1.08,0,.59,0,1.2,0,1.8s-.09.88-.77.86-.71-.31-.7-.83C223,96.18,223,95.1,223,94Z"/><path class="cls-7" d="M216.66,104.4h1.8c.38,0,.48.16.48.5s-.09.53-.47.52-.89,0-1.32,0c-1-.14-1.43.19-1.37,1.29.05.79.17,1.2,1.05,1.07a7.51,7.51,0,0,1,.95,0c.34,0,.52.11.52.48s-.11.48-.47.55c-.66.11-1.58-.42-1.93.37a7.16,7.16,0,0,0-.09,2.14c0,.47.32,1.2-.68,1.17-.54,0-.79-.14-.78-.74,0-2.2,0-4.4,0-6.59,0-.59.19-.79.76-.75S216.15,104.4,216.66,104.4Z"/><path class="cls-7" d="M188.68,108.87c0-.76-.06-1.52,0-2.27.09-.92-.19-1.35-1.16-1.19-.19,0-.4,0-.6,0-.35,0-.49-.13-.5-.49s.16-.54.56-.54c1.6,0,3.19,0,4.78,0,.36,0,.62,0,.62.51s-.26.48-.62.51c-1.63.17-1.63.18-1.63,1.81,0,1.48,0,3,0,4.43,0,.5-.06.81-.7.82s-.8-.27-.78-.86C188.71,110.7,188.68,109.78,188.68,108.87Z"/><path class="cls-2" d="M193.42,104.44c2.84-.37,2.2,2.51,3.62,3.48.38-.78.86-1.6,1.19-2.46s.81-1.35,1.88-.93c-.44.84-.85,1.72-1.36,2.55a6.55,6.55,0,0,0-1.19,4.49c.08.53,0,.9-.72.9s-.85-.3-.75-.86c.37-2-.67-3.6-1.62-5.21C194.11,105.79,193.8,105.15,193.42,104.44Z"/><path class="cls-7" d="M182.41,107.87c0,.4,0,.8,0,1.2,0,.72-.22,1.6.12,2.1s1.33.16,2,.22c.39,0,.72,0,.71.56s-.4.49-.75.51c-3.6.25-3.6.25-3.6-3.29,0-1.36,0-2.72,0-4.07,0-.62.24-.71.77-.72s.78.15.75.74C182.38,106,182.41,107,182.41,107.87Z"/><path class="cls-15" d="M386.75,121.29c2.2,0,2.15,0,2.22,2.19,0,1-.27,1.39-1.27,1.24a7.63,7.63,0,0,0-1.07,0c-1.93,0-1.85,0-2-1.95-.07-1.2.26-1.71,1.48-1.48A3,3,0,0,0,386.75,121.29Z"/><path class="cls-15" d="M240.39,108.37c0,1.12,0,2.24,0,3.36,0,.58-.21.77-.77.76s-.82-.09-.81-.72c0-2.24,0-4.48,0-6.71,0-.67.36-.66.83-.68s.78.18.76.75C240.37,106.21,240.39,107.29,240.39,108.37Z"/><path class="cls-7" d="M165.88,94.08c0-1.11,0-2.23,0-3.34,0-.57.17-.75.75-.76s.74.18.73.75c0,2.19,0,4.38,0,6.57,0,.54-.13.79-.73.78s-.77-.2-.75-.77C165.91,96.23,165.88,95.16,165.88,94.08Z"/><path class="cls-2" d="M195.61,94c0-1.08,0-2.16,0-3.23,0-.56.15-.77.74-.75s.78.11.77.72q0,3.29,0,6.57c0,.55-.16.77-.75.77s-.78-.15-.76-.74C195.63,96.2,195.61,95.08,195.61,94Z"/><path class="cls-16" d="M369.83,135.6c1.44,0,2.88,0,4.32,0a2.52,2.52,0,0,1,2.81,2.48,7.66,7.66,0,0,1,0,1.79c-.17,1.73-1,2.57-2.69,2.62-2.79.08-5.59,0-8.39,0a1.24,1.24,0,0,1-1.39-1.41c0-1.6,0-3.2,0-4.79,0-.61.24-.73.78-.72C366.79,135.62,368.31,135.6,369.83,135.6Z"/><path class="cls-16" d="M369.83,131.8c-1.43,0-2.87,0-4.3,0-.72,0-1.08-.11-1-.95.08-1.44.05-2.87,0-4.31,0-1,.43-1.47,1.42-1.47,2.55,0,5.11,0,7.66,0,1.13,0,2.33.16,2.73,1.47A5.14,5.14,0,0,1,376,131a1.94,1.94,0,0,1-1.77.81h-4.43Z"/><path class="cls-16" d="M456,137.2c0,1.67,0,3.35,0,5,0,.6-.13.85-.79.83-1.67-.05-3.35,0-5,0a3.09,3.09,0,0,1-3.36-2.76,15.42,15.42,0,0,1,0-6.76,3.29,3.29,0,0,1,2.92-2.74,21.75,21.75,0,0,1,4.77-.11,1.41,1.41,0,0,1,1.48,1.64C456,133.92,456,135.56,456,137.2Z"/><path class="cls-1" d="M103,110.38a34.62,34.62,0,0,1,7.68-.27,34.12,34.12,0,0,1,9.56,2.53,27.26,27.26,0,0,1,11.05,9.81,33.14,33.14,0,0,1,.56,32.33c-.19.39-.37.79-.55,1.19-2.57,4.18-6.14,7.44-9.83,10.57a57.94,57.94,0,0,1-8.39,5.1,54.3,54.3,0,0,1-8.43,2.76,46.8,46.8,0,0,1-10.77.61,51.86,51.86,0,0,1-12.72-2.91A71,71,0,0,1,71.3,167a84.39,84.39,0,0,1-7.6-6.12,5.84,5.84,0,0,0-.84-.81,62.9,62.9,0,0,1-8.1-10.62c-.67-1.44-1.32-2.88-2-4.3-.32-.67-.18-.92.58-.95,1,0,1.9-.16,2.85-.25l2.12-.24c3.14-.39,6.31-.52,9.42-1.09,3.69-.23,7.36-.66,11-1.1,1.18-.12,2.38-.16,3.53-.38a2.85,2.85,0,0,1,3.23,1.34,10.15,10.15,0,0,0,2.35,2.5,20.19,20.19,0,0,0,10.81,5.19,15.76,15.76,0,0,0,5.56.25,13,13,0,0,0,6.2-1.87,25.27,25.27,0,0,0,3.22-2.32,15.67,15.67,0,0,0,4.1-7.46c1.67-5.69-.48-12.54-6.6-15.24a9.81,9.81,0,0,0-8.16-.17c-4.71,1.49-7.61,7-6,11.34a2.25,2.25,0,0,0,2.71,1.58,2.09,2.09,0,0,0,1.59-2.67c-.69-2.35.27-4,1.94-5.49a6.79,6.79,0,0,1,7.64.29,8.46,8.46,0,0,1,2.83,7.87,12.63,12.63,0,0,1-3.52,7.19c-3.46,2.66-7.38,3-11.5,2.23-4.32-.89-7.24-3.92-10.26-6.79a19.17,19.17,0,0,1-1.24-15.26,20.19,20.19,0,0,1,7.43-9.84,23.58,23.58,0,0,1,7.48-3.17C102.37,110.58,102.67,110.47,103,110.38Z"/><path class="cls-1" d="M79.15,134.67a31,31,0,0,0,2.8,3.85c.44.53.53.87-.36.92s-1.9.19-2.85.29c-.35,0-.71,0-1.06.05l-10,1.12c-3.85.29-7.69.68-11.52,1.2-1.26.11-2.52.18-3.77.34-.48.07-.75,0-.89-.48-.34-1.3-.72-2.6-1.07-3.9-.14-.52,0-.79.63-.83,1.78-.14,3.56-.34,5.33-.51l13-1.16Z"/><path class="cls-1" d="M69.86,129.27c1.82-.07,3.65-.14,5.47-.24.35,0,.7-.16.91.29.56,1.17,1.13,2.34,1.73,3.6l-8.59.84-13.2,1.15c-1.82.15-3.63.29-5.44.46-.59,0-.73-.21-.79-.76-.42-4.08-.38-4.13,3.61-4.35,1.11-.06,2.22-.17,3.33-.26Z"/><path class="cls-16" d="M68.9,122.92c1.44,0,2.88,0,4.31-.07.76,0,1.06.23,1.21.94.23,1.08,1.06,2.38.7,3.14s-2,.21-3,.37c-.75.11-1.51.12-2.26.18l-13,.74c-1.83.08-3.66.15-5.49.25-.76,0-1.16-.09-.83-1a14.35,14.35,0,0,0,.67-2.41c.21-1.3,1-1.64,2.19-1.65.83,0,1.67,0,2.51-.07,3.3.12,6.59-.23,9.89-.26A10.56,10.56,0,0,0,68.9,122.92Z"/><path class="cls-16" d="M54.54,118.65c.93-1.59,2.34-1.82,4.06-1.74,2.7.13,5.42,0,8.13,0,1.87,0,3.74,0,5.61,0,.66,0,1,.22,1,.85,0,.32.07.63.1,1,.21,2.32.2,2.32-2.17,2.4l-2.38.08c-3.38-.12-6.75.23-10.13.25a11.3,11.3,0,0,0-2.84.16h-3C53.16,120.45,54.08,119.68,54.54,118.65Z"/><path class="cls-14" d="M56.18,134.91l13.2-1.15v1.8l-13,1.16A4.29,4.29,0,0,0,56.18,134.91Z"/><path class="cls-14" d="M56.89,128.22l13-.74v1.8l-13,.72Z"/><path class="cls-14" d="M55.93,121.62a11.3,11.3,0,0,1,2.84-.16c3.38,0,6.75-.37,10.13-.25v1.71a10.56,10.56,0,0,1-3.07.17c-3.3,0-6.59.38-9.89.26C55.94,122.77,55.93,122.19,55.93,121.62Z"/><path class="cls-14" d="M56.18,142.1c3.83-.52,7.67-.91,11.52-1.2,0,.58,0,1.15,0,1.73-3.11.57-6.28.7-9.42,1.09l-2.12.24Z"/><path class="cls-16" d="M62,112.13a6.42,6.42,0,0,1,3.49-.5l4.42,0c.51,0,1,0,1.55,0,1.74,0,1.74,0,1.74,1.75s0,1.82-1.86,1.82l-4.55,0H58A22.58,22.58,0,0,1,62,112.13Z"/><path class="cls-16" d="M69.86,109.93H67.42c.84-.61,1.72-.57,2.43-.94.74-.14,1.48-.33,2.22-.4.42,0,1.07-.5,1.18.43s-.35.91-1,.88S70.65,109.92,69.86,109.93Z"/><path class="cls-16" d="M435.93,136.91c0,1.75.06,3.56-1.38,4.9-2.08,1.91-4.54,1.74-7,1-2.2-.63-2.85-2.49-3-4.57a15,15,0,0,1,.21-4.28,3.77,3.77,0,0,1,1.1-2.21c2.18-1.81,4.7-1.61,7.15-.93,2.16.6,2.77,2.46,2.88,4.5C436,135.87,435.93,136.39,435.93,136.91Z"/><path class="cls-16" d="M407,136.84v.36c0,5.12-4,7.68-8.77,5.53a3.85,3.85,0,0,1-2.23-2.51,13,13,0,0,1,.05-7,2.88,2.88,0,0,1,1-1.6,7.56,7.56,0,0,1,7.31-.69c2.22.8,2.61,2.82,2.64,4.92Z"/><path class="cls-16" d="M91,84.77l6.94,7,6.81,6.95a43.21,43.21,0,0,1-4.53,1.78,1.23,1.23,0,0,1-1.29-.37q-3.31-3.51-6.64-7a1.52,1.52,0,0,0-.51-.25,21.52,21.52,0,0,0-3.32-3.81c-1.12-1.23-1.16-1.21,0-2.44.52-.54,1.07-1.06,1.62-1.58C90.31,84.79,90.55,84.48,91,84.77Z"/><path class="cls-16" d="M90.8,94.17l5.74,6.11c.94,1,.94,1-.34,1.32-.77.2-1.55.38-2.33.56a1.83,1.83,0,0,1-2.38-1c-1.82-2-3.63-4.11-5.44-6.16l-.33-.35c-2.15-2.33-2.13-2.32-.12-4.83.39-.5.58-.47,1-.06C88,91.27,89.39,92.71,90.8,94.17Z"/><path class="cls-16" d="M90.33,102.67c-.62.12-1,.16-1.4.27-2.75.82-4.83,0-6.45-2.37-.54-.77-1.77-1.33-1.86-2.07s.74-1.78,1.2-2.67c.9-1.74.89-1.73,2.21-.25,1.77,2,3.57,4,5.36,6C89.68,101.87,89.94,102.2,90.33,102.67Z"/><path class="cls-16" d="M82.4,103.37H78.94s-.06-.09,0-.14c.16-.9.27-2.2.93-2.44s1.27.95,1.84,1.59C81.92,102.66,82.31,102.85,82.4,103.37Z"/><path class="cls-12" d="M98.66,150.18A20.19,20.19,0,0,1,87.85,145c0-1.53,0-3.07,0-4.6a1.59,1.59,0,0,1,.55-1.47c3,2.87,5.94,5.9,10.26,6.79Z"/><path class="cls-4" d="M67.72,142.63c0-.58,0-1.15,0-1.73l10-1.12c.35,0,.71,0,1.06-.05v1.8C75.08,142,71.41,142.4,67.72,142.63Z"/><path class="cls-1" d="M151.9,134.16c0-3.12,0-6.23,0-9.35,0-.94.29-1.61,1.3-1.61,3.11,0,6.24-.16,9.34.08,3.83.3,6.21,2.61,6.8,6.57a24.47,24.47,0,0,1-.38,9.75c-.87,3.33-2.87,5-6.33,5.15-3.11.13-6.23,0-9.34.07-1.11,0-1.42-.5-1.4-1.55C151.93,140.23,151.9,137.2,151.9,134.16Z"/><path class="cls-16" d="M104,76.85c1.2-.3,2.4-.57,3.59-.9a1.81,1.81,0,0,1,2,.56c1.83,1.89,3.74,3.7,5.62,5.54,1.51,1.54,3,3.09,4.53,4.6.44.43.47.7,0,1.14-.85.84-1.63,1.74-2.45,2.62-.52.12-.67-.36-.93-.61-2.08-2-4.14-4.08-6.21-6.12l-6-5.94C104.2,77.43,103.78,77.23,104,76.85Z"/><path class="cls-16" d="M111.85,75.1c1-.07,2-.11,2.94-.23a2.12,2.12,0,0,1,2.07.78c.59.68,1.3,1.26,2,1.88,1.42,1.46,2.8,3,4.26,4.36.56.55.52.91.11,1.5-1.66,2.42-1.64,2.43-3.69.39-1.33-1.32-2.68-2.63-4-3.94s-2.5-2.61-3.8-3.86C111.14,75.47,111.44,75.32,111.85,75.1Z"/><path class="cls-16" d="M119.15,75.39l-.31-.68c2.62.09,5.24.33,7.85.65.67.08.94.19.58.93-.77,1.57-1.59,3.1-2.62,4.78Z"/><path class="cls-1" d="M194.37,137.16c0-2.2,0-4.4,0-6.6,0-.94.38-1.31,1.27-1.31,1.72,0,3.44-.05,5.16,0,2.9.13,4.5,1.69,4.92,4.57a22.53,22.53,0,0,1-.05,6.56,4.77,4.77,0,0,1-4.86,4.39c-1.88.07-3.76,0-5.64,0-.65,0-.8-.24-.8-.84C194.39,141.71,194.37,139.43,194.37,137.16Z"/><path class="cls-1" d="M217.76,144.82c-1.24,0-2.48,0-3.71,0a2.26,2.26,0,0,1-2.39-1.92,9.09,9.09,0,0,1-.06-3.92,2.26,2.26,0,0,1,2.31-2c2.71,0,5.43,0,8.14,0,.62,0,.72.27.71.79q0,3,0,6c0,.84-.37,1.13-1.17,1.12C220.32,144.8,219,144.82,217.76,144.82Z"/><path class="cls-16" d="M282.83,135.94c-1.71,0-3.43,0-5.15,0-.6,0-.81-.14-.79-.82.08-3.12,1.25-5.08,3.64-5.63a10.57,10.57,0,0,1,5.21.07,5.24,5.24,0,0,1,3.44,5.53.88.88,0,0,1-1.08.84h-5.27Z"/><path class="cls-16" d="M181.18,135.94c-1.72,0-3.44,0-5.15,0-.6,0-.85-.14-.83-.8.14-3.37,1.51-5.86,5.43-5.87a21,21,0,0,1,2.63.1,5.05,5.05,0,0,1,4.22,5.82c-.14.7-.61.74-1.15.74Z"/><path class="cls-1" d="M98.41,89.8a49.29,49.29,0,0,0-5.49-5.42c-1.14-.93-1.15-1,.08-1.83.48-.34.91-.74,1.39-1.08.89-.64,1.78-1,2.58.14l8.19,8.25c1.6,1.62,3.16,3.28,4.8,4.84.75.71.57,1-.22,1.44s-1.79,1-2.68,1.55c-.63.19-.94-.28-1.29-.63Z"/><path class="cls-16" d="M105.93,88.14l-7.39-7.5c-1-1-1-1,.27-1.61a4.75,4.75,0,0,0,.76-.34c1.45-1,2.74-1,3.81.55,2,2.39,4.36,4.48,6.54,6.71,1.69,1.69,3.35,3.4,5.06,5,.57.56.7.87,0,1.45-2.57,2.07-2.54,2.1-4.86-.21C108.72,90.87,107.32,89.51,105.93,88.14Z"/><path class="cls-13" d="M109.92,86c-2.18-2.23-4.51-4.32-6.54-6.71.66-.28-.12-1.41.87-1.5l6,5.94A6.25,6.25,0,0,0,109.92,86Z"/><path class="cls-16" d="M340.29,139.18c.06,4.74-1.65,6.33-6.39,6-3.14-.23-4.6-1.76-4.61-4.92a16.81,16.81,0,0,1,.2-3.94,3.6,3.6,0,0,1,3-3,11.16,11.16,0,0,1,4.64,0c2,.45,2.89,1.55,3.14,3.82A17.34,17.34,0,0,1,340.29,139.18Z"/><path class="cls-16" d="M210.59,108.39c0,2.07-.73,3.15-2.13,3.17s-2.22-1.21-2.15-3.27.88-3.06,2.34-3S210.59,106.4,210.59,108.39Z"/><path class="cls-16" d="M254.59,92.17c.1-.56-.3-1.32.77-1.25.88,0,1.47.31,1.43,1.3s-.66,1.25-1.5,1.27C254.09,93.51,254.85,92.56,254.59,92.17Z"/><path class="cls-16" d="M215.73,94.06c0-2.09.79-3.17,2.27-3.13s2.14,1.25,2,3.44c-.08,1.81-.93,2.85-2.27,2.79S215.73,96,215.73,94.06Z"/><path class="cls-16" d="M267.45,95.67c.15-.57-.37-1.43.81-1.35s1.66.52,1.62,1.48-.73,1.33-1.62,1.36C266.89,97.21,267.74,96.13,267.45,95.67Z"/><path class="cls-16" d="M268.15,90.93c1,0,1.46.41,1.41,1.32s-.57,1.15-1.34,1.15c-1.32,0-.6-1-.72-1.57S267.47,90.73,268.15,90.93Z"/><path class="cls-16" d="M184.08,92.26c.07-.66-.29-1.45.84-1.34.82.07,1.37.3,1.36,1.25s-.59,1.26-1.45,1.31C183.61,93.54,184.31,92.6,184.08,92.26Z"/><path class="cls-16" d="M241.7,94.45c-2.08.28-2.08.28-1.51-1.49l.43-1.33A17.64,17.64,0,0,1,241.7,94.45Z"/><path class="cls-16" d="M159,105.79c.38,1.19.67,2.12,1,3.06-2.05.27-2.05.27-1.47-1.55C158.68,106.89,158.81,106.48,159,105.79Z"/><path class="cls-9" d="M111.14,123.54c6.12,2.7,8.27,9.55,6.6,15.24a15.67,15.67,0,0,1-4.1,7.46,25.27,25.27,0,0,1-3.22,2.32c-.54-1.67-.09-3.39-.26-5.08a12.63,12.63,0,0,0,3.52-7.19,8.46,8.46,0,0,0-2.83-7.87c.4-.28.27-.71.28-1.09C111.14,126.07,111.14,124.81,111.14,123.54Z"/><path class="cls-10" d="M103.21,128.13c-1.67,1.47-2.63,3.14-1.94,5.49a2.09,2.09,0,0,1-1.59,2.67A2.25,2.25,0,0,1,97,134.71c-1.6-4.38,1.3-9.85,6-11.34C103.43,124.94,103.13,126.55,103.21,128.13Z"/><path class="cls-13" d="M110.16,143.48c.17,1.69-.28,3.41.26,5.08a13,13,0,0,1-6.2,1.87,15.76,15.76,0,0,1-5.56-.25v-4.47C102.78,146.46,106.7,146.14,110.16,143.48Z"/><path class="cls-13" d="M103.21,128.13c-.08-1.58.22-3.19-.23-4.76a9.81,9.81,0,0,1,8.16.17c0,1.27,0,2.53,0,3.79,0,.38.12.81-.28,1.09A6.79,6.79,0,0,0,103.21,128.13Z"/></svg>